<?xml version="1.0" encoding="UTF-8" standalone="no"?>
<!DOCTYPE svg PUBLIC "-//W3C//DTD SVG 1.1//EN"
 "http://www.w3.org/Graphics/SVG/1.1/DTD/svg11.dtd">
<!-- Generated by graphviz version 14.1.5 (20260411.2331)
 -->
<!-- Title: X5H_Full_HW_SW_Architecture Pages: 1 -->
<svg width="3906pt" height="2013pt"
 viewBox="0.00 0.00 3906.00 2013.00" xmlns="http://www.w3.org/2000/svg" xmlns:xlink="http://www.w3.org/1999/xlink">
<g id="graph0" class="graph" transform="scale(1 1) rotate(0) translate(4 2009.12)">
<title>X5H_Full_HW_SW_Architecture</title>
<polygon fill="white" stroke="none" points="-4,4 -4,-2009.12 3901.75,-2009.12 3901.75,4 -4,4"/>
<text xml:space="preserve" text-anchor="middle" x="1948.88" y="-1989.72" font-family="Helvetica,sans-Serif" font-size="12.00">Renesas R&#45;Car X5H (R8A78000 / ironhide) — Full HW/SW Architecture (11&#45;repo derived view)</text>
<text xml:space="preserve" text-anchor="middle" x="1948.88" y="-1976.97" font-family="Helvetica,sans-Serif" font-size="12.00">Sources: android_device, android&#45;manifest, android&#45;kernel&#45;manifest, ddk&#45;km, ddk&#45;um&#45;bin, disfwk_fe, gen5&#45;prebuilts, meta&#45;xt&#45;gen5&#45;platform, meta&#45;xt&#45;x5h&#45;dev, x5h&#45;cr52&#45;dev, x5h&#45;cr52&#45;platform</text>
<g id="clust1" class="cluster">
<title>cluster_hw</title>
<path fill="white" stroke="#1d4ed8" d="M2801,-258.25C2801,-258.25 3794,-258.25 3794,-258.25 3800,-258.25 3806,-264.25 3806,-270.25 3806,-270.25 3806,-1441.12 3806,-1441.12 3806,-1447.12 3800,-1453.12 3794,-1453.12 3794,-1453.12 2801,-1453.12 2801,-1453.12 2795,-1453.12 2789,-1447.12 2789,-1441.12 2789,-1441.12 2789,-270.25 2789,-270.25 2789,-264.25 2795,-258.25 2801,-258.25"/>
<text xml:space="preserve" text-anchor="middle" x="3297.5" y="-1437.72" font-family="Helvetica,sans-Serif" font-size="12.00" fill="#1d4ed8">HARDWARE — R&#45;Car X5H SoC (R8A78000) + Board (ironhide)</text>
</g>
<g id="clust2" class="cluster">
<title>cluster_cpus</title>
<path fill="#eff6ff" stroke="#60a5fa" d="M2899,-881.62C2899,-881.62 3564,-881.62 3564,-881.62 3570,-881.62 3576,-887.62 3576,-893.62 3576,-893.62 3576,-968.88 3576,-968.88 3576,-974.88 3570,-980.88 3564,-980.88 3564,-980.88 2899,-980.88 2899,-980.88 2893,-980.88 2887,-974.88 2887,-968.88 2887,-968.88 2887,-893.62 2887,-893.62 2887,-887.62 2893,-881.62 2899,-881.62"/>
<text xml:space="preserve" text-anchor="middle" x="3231.5" y="-965.48" font-family="Helvetica,sans-Serif" font-size="12.00" fill="#1d4ed8">Compute clusters</text>
</g>
<g id="clust3" class="cluster">
<title>cluster_videohw</title>
<path fill="#eff6ff" stroke="#60a5fa" d="M3596,-557.5C3596,-557.5 3767,-557.5 3767,-557.5 3773,-557.5 3779,-563.5 3779,-569.5 3779,-569.5 3779,-1412.38 3779,-1412.38 3779,-1418.38 3773,-1424.38 3767,-1424.38 3767,-1424.38 3596,-1424.38 3596,-1424.38 3590,-1424.38 3584,-1418.38 3584,-1412.38 3584,-1412.38 3584,-569.5 3584,-569.5 3584,-563.5 3590,-557.5 3596,-557.5"/>
<text xml:space="preserve" text-anchor="middle" x="3681.5" y="-1408.97" font-family="Helvetica,sans-Serif" font-size="12.00" fill="#1d4ed8">Video / Display / Camera HW</text>
</g>
<g id="clust4" class="cluster">
<title>cluster_iohw</title>
<path fill="#eff6ff" stroke="#60a5fa" d="M2809,-732.38C2809,-732.38 3564,-732.38 3564,-732.38 3570,-732.38 3576,-738.38 3576,-744.38 3576,-744.38 3576,-813.88 3576,-813.88 3576,-819.88 3570,-825.88 3564,-825.88 3564,-825.88 2809,-825.88 2809,-825.88 2803,-825.88 2797,-819.88 2797,-813.88 2797,-813.88 2797,-744.38 2797,-744.38 2797,-738.38 2803,-732.38 2809,-732.38"/>
<text xml:space="preserve" text-anchor="middle" x="3186.5" y="-810.48" font-family="Helvetica,sans-Serif" font-size="12.00" fill="#1d4ed8">I/O &amp; system HW</text>
</g>
<g id="clust5" class="cluster">
<title>cluster_extio</title>
<path fill="#eff6ff" stroke="#60a5fa" d="M3416,-266.25C3416,-266.25 3741,-266.25 3741,-266.25 3747,-266.25 3753,-272.25 3753,-278.25 3753,-278.25 3753,-511 3753,-511 3753,-517 3747,-523 3741,-523 3741,-523 3416,-523 3416,-523 3410,-523 3404,-517 3404,-511 3404,-511 3404,-278.25 3404,-278.25 3404,-272.25 3410,-266.25 3416,-266.25"/>
<text xml:space="preserve" text-anchor="middle" x="3578.5" y="-507.6" font-family="Helvetica,sans-Serif" font-size="12.00" fill="#1d4ed8">Off&#45;chip</text>
</g>
<g id="clust6" class="cluster">
<title>cluster_boot</title>
<path fill="white" stroke="#b45309" d="M2138,-1189C2138,-1189 2769,-1189 2769,-1189 2775,-1189 2781,-1195 2781,-1201 2781,-1201 2781,-1946.62 2781,-1946.62 2781,-1952.62 2775,-1958.62 2769,-1958.62 2769,-1958.62 2138,-1958.62 2138,-1958.62 2132,-1958.62 2126,-1952.62 2126,-1946.62 2126,-1946.62 2126,-1201 2126,-1201 2126,-1195 2132,-1189 2138,-1189"/>
<text xml:space="preserve" text-anchor="middle" x="2453.5" y="-1943.22" font-family="Helvetica,sans-Serif" font-size="12.00" fill="#b45309">BOOT CHAIN &amp; FIRMWARE &#160;(gen5&#45;prebuilts/ipls + x5h_bootloaders.yaml)</text>
</g>
<g id="clust7" class="cluster">
<title>cluster_cr52</title>
<path fill="white" stroke="#15803d" d="M1527,-881.62C1527,-881.62 2039,-881.62 2039,-881.62 2045,-881.62 2051,-887.62 2051,-893.62 2051,-893.62 2051,-1671.88 2051,-1671.88 2051,-1677.88 2045,-1683.88 2039,-1683.88 2039,-1683.88 1527,-1683.88 1527,-1683.88 1521,-1683.88 1515,-1677.88 1515,-1671.88 1515,-1671.88 1515,-893.62 1515,-893.62 1515,-887.62 1521,-881.62 1527,-881.62"/>
<text xml:space="preserve" text-anchor="middle" x="1783" y="-1668.47" font-family="Helvetica,sans-Serif" font-size="12.00" fill="#15803d">R&#45;CORE &#160;/ &#160;CR52 software &#160;&#160;(x5h&#45;cr52&#45;platform v4.31, x5h&#45;cr52&#45;dev)</text>
</g>
<g id="clust8" class="cluster">
<title>cluster_xen</title>
<path fill="white" stroke="#7c3aed" d="M274,-8C274,-8 1495,-8 1495,-8 1501,-8 1507,-14 1507,-20 1507,-20 1507,-1151 1507,-1151 1507,-1157 1501,-1163 1495,-1163 1495,-1163 274,-1163 274,-1163 268,-1163 262,-1157 262,-1151 262,-1151 262,-20 262,-20 262,-14 268,-8 274,-8"/>
<text xml:space="preserve" text-anchor="middle" x="884.5" y="-1147.6" font-family="Helvetica,sans-Serif" font-size="12.00" fill="#7c3aed">HYPERVISOR &#160;— &#160;Xen 4.21 (xen&#45;troops, scarthgap)</text>
<text xml:space="preserve" text-anchor="middle" x="884.5" y="-1134.85" font-family="Helvetica,sans-Serif" font-size="12.00" fill="#7c3aed">build config: meta&#45;xt&#45;gen5&#45;platform + meta&#45;xt&#45;x5h&#45;dev (prod&#45;devel&#45;rcar&#45;gen5.yaml)</text>
</g>
<g id="clust9" class="cluster">
<title>cluster_dom0</title>
<path fill="#f5f3ff" stroke="#7c3aed" d="M282,-732.38C282,-732.38 480,-732.38 480,-732.38 486,-732.38 492,-738.38 492,-744.38 492,-744.38 492,-968.88 492,-968.88 492,-974.88 486,-980.88 480,-980.88 480,-980.88 282,-980.88 282,-980.88 276,-980.88 270,-974.88 270,-968.88 270,-968.88 270,-744.38 270,-744.38 270,-738.38 276,-732.38 282,-732.38"/>
<text xml:space="preserve" text-anchor="middle" x="381" y="-965.48" font-family="Helvetica,sans-Serif" font-size="12.00" fill="#7c3aed">Dom0 (control) &#160;— &#160;meta&#45;xt&#45;dom0&#45;gen5</text>
</g>
<g id="clust10" class="cluster">
<title>cluster_domd</title>
<path fill="#f5f3ff" stroke="#7c3aed" d="M812,-729.5C812,-729.5 1487,-729.5 1487,-729.5 1493,-729.5 1499,-735.5 1499,-741.5 1499,-741.5 1499,-994.38 1499,-994.38 1499,-1000.38 1493,-1006.38 1487,-1006.38 1487,-1006.38 812,-1006.38 812,-1006.38 806,-1006.38 800,-1000.38 800,-994.38 800,-994.38 800,-741.5 800,-741.5 800,-735.5 806,-729.5 812,-729.5"/>
<text xml:space="preserve" text-anchor="middle" x="1149.5" y="-990.98" font-family="Helvetica,sans-Serif" font-size="12.00" fill="#7c3aed">DomD — Driver Domain &#160;(Linux Yocto, ironhide)</text>
<text xml:space="preserve" text-anchor="middle" x="1149.5" y="-978.23" font-family="Helvetica,sans-Serif" font-size="12.00" fill="#7c3aed">meta&#45;xt&#45;domd&#45;gen5 &#160;+ &#160;meta&#45;xt&#45;domx&#45;gen5</text>
</g>
<g id="clust11" class="cluster">
<title>cluster_domu</title>
<path fill="#f5f3ff" stroke="#7c3aed" d="M531,-884.5C531,-884.5 780,-884.5 780,-884.5 786,-884.5 792,-890.5 792,-896.5 792,-896.5 792,-991.5 792,-991.5 792,-997.5 786,-1003.5 780,-1003.5 780,-1003.5 531,-1003.5 531,-1003.5 525,-1003.5 519,-997.5 519,-991.5 519,-991.5 519,-896.5 519,-896.5 519,-890.5 525,-884.5 531,-884.5"/>
<text xml:space="preserve" text-anchor="middle" x="655.5" y="-988.1" font-family="Helvetica,sans-Serif" font-size="12.00" fill="#7c3aed">DomU — Linux guest &#160;(rcar&#45;image&#45;adas)</text>
<text xml:space="preserve" text-anchor="middle" x="655.5" y="-975.35" font-family="Helvetica,sans-Serif" font-size="12.00" fill="#7c3aed">meta&#45;xt&#45;domu&#45;gen5</text>
</g>
<g id="clust12" class="cluster">
<title>cluster_doma</title>
<path fill="#fce7f3" stroke="#be185d" d="M773,-16C773,-16 1103,-16 1103,-16 1109,-16 1115,-22 1115,-28 1115,-28 1115,-673 1115,-673 1115,-679 1109,-685 1103,-685 1103,-685 773,-685 773,-685 767,-685 761,-679 761,-673 761,-673 761,-28 761,-28 761,-22 767,-16 773,-16"/>
<text xml:space="preserve" text-anchor="middle" x="938" y="-669.6" font-family="Helvetica,sans-Serif" font-size="12.00" fill="#7c3aed">DomA — Android guest &#160;(AOSP main, Trout&#45;XenVM)</text>
<text xml:space="preserve" text-anchor="middle" x="938" y="-656.85" font-family="Helvetica,sans-Serif" font-size="12.00" fill="#7c3aed">aosp_xenvm_trout_arm64 — userdebug</text>
</g>
<!-- ACore -->
<g id="node1" class="node">
<title>ACore</title>
<path fill="#bfdbfe" stroke="#334155" d="M2981.25,-931.38C2981.25,-931.38 2906.75,-931.38 2906.75,-931.38 2900.75,-931.38 2894.75,-925.38 2894.75,-919.38 2894.75,-919.38 2894.75,-901.62 2894.75,-901.62 2894.75,-895.62 2900.75,-889.62 2906.75,-889.62 2906.75,-889.62 2981.25,-889.62 2981.25,-889.62 2987.25,-889.62 2993.25,-895.62 2993.25,-901.62 2993.25,-901.62 2993.25,-919.38 2993.25,-919.38 2993.25,-925.38 2987.25,-931.38 2981.25,-931.38"/>
<text xml:space="preserve" text-anchor="middle" x="2944" y="-917.88" font-family="Helvetica,sans-Serif" font-size="10.00">A&#45;core</text>
<text xml:space="preserve" text-anchor="middle" x="2944" y="-906.62" font-family="Helvetica,sans-Serif" font-size="10.00">Cortex&#45;A72 cluster</text>
<text xml:space="preserve" text-anchor="middle" x="2944" y="-895.38" font-family="Helvetica,sans-Serif" font-size="10.00">(ARMv8, EL2/EL1)</text>
</g>
<!-- MFIS -->
<g id="node15" class="node">
<title>MFIS</title>
<path fill="#334155" stroke="#334155" d="M2970,-776.38C2970,-776.38 2918,-776.38 2918,-776.38 2912,-776.38 2906,-770.38 2906,-764.38 2906,-764.38 2906,-752.38 2906,-752.38 2906,-746.38 2912,-740.38 2918,-740.38 2918,-740.38 2970,-740.38 2970,-740.38 2976,-740.38 2982,-746.38 2982,-752.38 2982,-752.38 2982,-764.38 2982,-764.38 2982,-770.38 2976,-776.38 2970,-776.38"/>
<text xml:space="preserve" text-anchor="middle" x="2944" y="-760.12" font-family="Helvetica,sans-Serif" font-size="10.00">MFIS</text>
<text xml:space="preserve" text-anchor="middle" x="2944" y="-748.88" font-family="Helvetica,sans-Serif" font-size="10.00">mailbox / IPC</text>
</g>
<!-- ACore&#45;&gt;MFIS -->
<g id="edge61" class="edge">
<title>ACore&#45;&gt;MFIS</title>
<path fill="none" stroke="#0891b2" stroke-dasharray="5,2" d="M2956.67,-889.35C2956.67,-889.35 2956.67,-788.01 2956.67,-788.01"/>
<polygon fill="#0891b2" stroke="#0891b2" points="2960.17,-788.01 2956.67,-778.01 2953.17,-788.01 2960.17,-788.01"/>
</g>
<!-- XenBin -->
<g id="node36" class="node">
<title>XenBin</title>
<path fill="#fde68a" stroke="#334155" d="M2566.5,-1233C2566.5,-1233 2487.5,-1233 2487.5,-1233 2481.5,-1233 2475.5,-1227 2475.5,-1221 2475.5,-1221 2475.5,-1209 2475.5,-1209 2475.5,-1203 2481.5,-1197 2487.5,-1197 2487.5,-1197 2566.5,-1197 2566.5,-1197 2572.5,-1197 2578.5,-1203 2578.5,-1209 2578.5,-1209 2578.5,-1221 2578.5,-1221 2578.5,-1227 2572.5,-1233 2566.5,-1233"/>
<text xml:space="preserve" text-anchor="middle" x="2527" y="-1216.75" font-family="Helvetica,sans-Serif" font-size="10.00">Xen 4.21</text>
<text xml:space="preserve" text-anchor="middle" x="2527" y="-1205.5" font-family="Helvetica,sans-Serif" font-size="10.00">(xen&#45;troops xt&#45;gen5)</text>
</g>
<!-- ACore&#45;&gt;XenBin -->
<!-- RCore -->
<g id="node2" class="node">
<title>RCore</title>
<path fill="#bbf7d0" stroke="#334155" d="M3125.38,-931.38C3125.38,-931.38 3030.62,-931.38 3030.62,-931.38 3024.62,-931.38 3018.62,-925.38 3018.62,-919.38 3018.62,-919.38 3018.62,-901.62 3018.62,-901.62 3018.62,-895.62 3024.62,-889.62 3030.62,-889.62 3030.62,-889.62 3125.38,-889.62 3125.38,-889.62 3131.38,-889.62 3137.38,-895.62 3137.38,-901.62 3137.38,-901.62 3137.38,-919.38 3137.38,-919.38 3137.38,-925.38 3131.38,-931.38 3125.38,-931.38"/>
<text xml:space="preserve" text-anchor="middle" x="3078" y="-917.88" font-family="Helvetica,sans-Serif" font-size="10.00">R&#45;core</text>
<text xml:space="preserve" text-anchor="middle" x="3078" y="-906.62" font-family="Helvetica,sans-Serif" font-size="10.00">Cortex&#45;R52 ×3 clusters</text>
<text xml:space="preserve" text-anchor="middle" x="3078" y="-895.38" font-family="Helvetica,sans-Serif" font-size="10.00">(c0/c1/c2 — safety/RT)</text>
</g>
<!-- RCore&#45;&gt;MFIS -->
<g id="edge60" class="edge">
<title>RCore&#45;&gt;MFIS</title>
<path fill="none" stroke="#0891b2" stroke-dasharray="5,2" d="M3018.33,-911C3007.9,-911 3000.31,-911 3000.31,-911 3000.31,-911 3000.31,-758 3000.31,-758 3000.31,-758 2994.01,-758 2994.01,-758"/>
<polygon fill="#0891b2" stroke="#0891b2" points="2994.01,-754.5 2984.01,-758 2994.01,-761.5 2994.01,-754.5"/>
</g>
<!-- FreeRTOS -->
<g id="node38" class="node">
<title>FreeRTOS</title>
<path fill="#bbf7d0" stroke="#334155" d="M1808.62,-1634.38C1808.62,-1634.38 1769.38,-1634.38 1769.38,-1634.38 1763.38,-1634.38 1757.38,-1628.38 1757.38,-1622.38 1757.38,-1622.38 1757.38,-1610.38 1757.38,-1610.38 1757.38,-1604.38 1763.38,-1598.38 1769.38,-1598.38 1769.38,-1598.38 1808.62,-1598.38 1808.62,-1598.38 1814.62,-1598.38 1820.62,-1604.38 1820.62,-1610.38 1820.62,-1610.38 1820.62,-1622.38 1820.62,-1622.38 1820.62,-1628.38 1814.62,-1634.38 1808.62,-1634.38"/>
<text xml:space="preserve" text-anchor="middle" x="1789" y="-1612.5" font-family="Helvetica,sans-Serif" font-size="10.00">FreeRTOS</text>
</g>
<!-- RCore&#45;&gt;FreeRTOS -->
<g id="edge72" class="edge">
<title>RCore&#45;&gt;FreeRTOS</title>
<path fill="none" stroke="#475569" stroke-dasharray="5,2" d="M3078,-931.67C3078,-1045.65 3078,-1581 3078,-1581 3078,-1581 1778.46,-1581 1778.46,-1581 1778.46,-1581 1778.46,-1586.76 1778.46,-1586.76"/>
<polygon fill="#475569" stroke="#475569" points="1774.96,-1586.76 1778.46,-1596.76 1781.96,-1586.76 1774.96,-1586.76"/>
</g>
<!-- MCore -->
<g id="node3" class="node">
<title>MCore</title>
<path fill="#fde68a" stroke="#334155" d="M3261.25,-931.38C3261.25,-931.38 3174.75,-931.38 3174.75,-931.38 3168.75,-931.38 3162.75,-925.38 3162.75,-919.38 3162.75,-919.38 3162.75,-901.62 3162.75,-901.62 3162.75,-895.62 3168.75,-889.62 3174.75,-889.62 3174.75,-889.62 3261.25,-889.62 3261.25,-889.62 3267.25,-889.62 3273.25,-895.62 3273.25,-901.62 3273.25,-901.62 3273.25,-919.38 3273.25,-919.38 3273.25,-925.38 3267.25,-931.38 3261.25,-931.38"/>
<text xml:space="preserve" text-anchor="middle" x="3218" y="-917.88" font-family="Helvetica,sans-Serif" font-size="10.00">M&#45;core</text>
<text xml:space="preserve" text-anchor="middle" x="3218" y="-906.62" font-family="Helvetica,sans-Serif" font-size="10.00">Cortex&#45;M33 (SCP)</text>
<text xml:space="preserve" text-anchor="middle" x="3218" y="-895.38" font-family="Helvetica,sans-Serif" font-size="10.00">System Control Proc.</text>
</g>
<!-- NPU0 -->
<g id="node4" class="node">
<title>NPU0</title>
<path fill="#fbcfe8" stroke="#334155" d="M3340,-928.5C3340,-928.5 3310,-928.5 3310,-928.5 3304,-928.5 3298,-922.5 3298,-916.5 3298,-916.5 3298,-904.5 3298,-904.5 3298,-898.5 3304,-892.5 3310,-892.5 3310,-892.5 3340,-892.5 3340,-892.5 3346,-892.5 3352,-898.5 3352,-904.5 3352,-904.5 3352,-916.5 3352,-916.5 3352,-922.5 3346,-928.5 3340,-928.5"/>
<text xml:space="preserve" text-anchor="middle" x="3325" y="-906.62" font-family="Helvetica,sans-Serif" font-size="10.00">NPU0</text>
</g>
<!-- NPU1 -->
<g id="node5" class="node">
<title>NPU1</title>
<path fill="#fbcfe8" stroke="#334155" d="M3419,-928.5C3419,-928.5 3389,-928.5 3389,-928.5 3383,-928.5 3377,-922.5 3377,-916.5 3377,-916.5 3377,-904.5 3377,-904.5 3377,-898.5 3383,-892.5 3389,-892.5 3389,-892.5 3419,-892.5 3419,-892.5 3425,-892.5 3431,-898.5 3431,-904.5 3431,-904.5 3431,-916.5 3431,-916.5 3431,-922.5 3425,-928.5 3419,-928.5"/>
<text xml:space="preserve" text-anchor="middle" x="3404" y="-906.62" font-family="Helvetica,sans-Serif" font-size="10.00">NPU1</text>
</g>
<!-- GPU -->
<g id="node6" class="node">
<title>GPU</title>
<path fill="#fecaca" stroke="#334155" d="M3555.62,-931.38C3555.62,-931.38 3468.38,-931.38 3468.38,-931.38 3462.38,-931.38 3456.38,-925.38 3456.38,-919.38 3456.38,-919.38 3456.38,-901.62 3456.38,-901.62 3456.38,-895.62 3462.38,-889.62 3468.38,-889.62 3468.38,-889.62 3555.62,-889.62 3555.62,-889.62 3561.62,-889.62 3567.62,-895.62 3567.62,-901.62 3567.62,-901.62 3567.62,-919.38 3567.62,-919.38 3567.62,-925.38 3561.62,-931.38 3555.62,-931.38"/>
<text xml:space="preserve" text-anchor="middle" x="3512" y="-917.88" font-family="Helvetica,sans-Serif" font-size="10.00">GPU</text>
<text xml:space="preserve" text-anchor="middle" x="3512" y="-906.62" font-family="Helvetica,sans-Serif" font-size="10.00">Imagination PowerVR</text>
<text xml:space="preserve" text-anchor="middle" x="3512" y="-895.38" font-family="Helvetica,sans-Serif" font-size="10.00">(Rogue)</text>
</g>
<!-- VSPD -->
<g id="node11" class="node">
<title>VSPD</title>
<path fill="#334155" stroke="#334155" d="M3641.38,-776.38C3641.38,-776.38 3606.62,-776.38 3606.62,-776.38 3600.62,-776.38 3594.62,-770.38 3594.62,-764.38 3594.62,-764.38 3594.62,-752.38 3594.62,-752.38 3594.62,-746.38 3600.62,-740.38 3606.62,-740.38 3606.62,-740.38 3641.38,-740.38 3641.38,-740.38 3647.38,-740.38 3653.38,-746.38 3653.38,-752.38 3653.38,-752.38 3653.38,-764.38 3653.38,-764.38 3653.38,-770.38 3647.38,-776.38 3641.38,-776.38"/>
<text xml:space="preserve" text-anchor="middle" x="3624" y="-760.12" font-family="Helvetica,sans-Serif" font-size="10.00">VSPD</text>
<text xml:space="preserve" text-anchor="middle" x="3624" y="-748.88" font-family="Helvetica,sans-Serif" font-size="10.00">composer</text>
</g>
<!-- GPU&#45;&gt;VSPD -->
<g id="edge59" class="edge">
<title>GPU&#45;&gt;VSPD</title>
<path fill="none" stroke="#dc2626" stroke-dasharray="5,2" d="M3567.9,-911C3572.66,-911 3575.71,-911 3575.71,-911 3575.71,-911 3575.71,-752 3575.71,-752 3575.71,-752 3582.73,-752 3582.73,-752"/>
<polygon fill="#dc2626" stroke="#dc2626" points="3582.73,-755.5 3592.73,-752 3582.73,-748.5 3582.73,-755.5"/>
<text xml:space="preserve" text-anchor="middle" x="3565.12" y="-845.58" font-family="Helvetica,sans-Serif" font-size="9.00">rendered surfaces</text>
</g>
<!-- CSI2 -->
<g id="node7" class="node">
<title>CSI2</title>
<path fill="#334155" stroke="#334155" d="M3638.38,-1374.88C3638.38,-1374.88 3603.62,-1374.88 3603.62,-1374.88 3597.62,-1374.88 3591.62,-1368.88 3591.62,-1362.88 3591.62,-1362.88 3591.62,-1350.88 3591.62,-1350.88 3591.62,-1344.88 3597.62,-1338.88 3603.62,-1338.88 3603.62,-1338.88 3638.38,-1338.88 3638.38,-1338.88 3644.38,-1338.88 3650.38,-1344.88 3650.38,-1350.88 3650.38,-1350.88 3650.38,-1362.88 3650.38,-1362.88 3650.38,-1368.88 3644.38,-1374.88 3638.38,-1374.88"/>
<text xml:space="preserve" text-anchor="middle" x="3621" y="-1353" font-family="Helvetica,sans-Serif" font-size="10.00">CSI&#45;2 RX</text>
</g>
<!-- VIN -->
<g id="node8" class="node">
<title>VIN</title>
<path fill="#334155" stroke="#334155" d="M3646.75,-1233C3646.75,-1233 3605.25,-1233 3605.25,-1233 3599.25,-1233 3593.25,-1227 3593.25,-1221 3593.25,-1221 3593.25,-1209 3593.25,-1209 3593.25,-1203 3599.25,-1197 3605.25,-1197 3605.25,-1197 3646.75,-1197 3646.75,-1197 3652.75,-1197 3658.75,-1203 3658.75,-1209 3658.75,-1209 3658.75,-1221 3658.75,-1221 3658.75,-1227 3652.75,-1233 3646.75,-1233"/>
<text xml:space="preserve" text-anchor="middle" x="3626" y="-1216.75" font-family="Helvetica,sans-Serif" font-size="10.00">VIN</text>
<text xml:space="preserve" text-anchor="middle" x="3626" y="-1205.5" font-family="Helvetica,sans-Serif" font-size="10.00">Video Input</text>
</g>
<!-- CSI2&#45;&gt;VIN -->
<g id="edge3" class="edge">
<title>CSI2&#45;&gt;VIN</title>
<path fill="none" stroke="#475569" d="M3631.33,-1338.62C3631.33,-1338.62 3631.33,-1244.7 3631.33,-1244.7"/>
<polygon fill="#475569" stroke="#475569" points="3634.83,-1244.7 3631.33,-1234.7 3627.83,-1244.7 3634.83,-1244.7"/>
</g>
<!-- Camfwk -->
<g id="node42" class="node">
<title>Camfwk</title>
<path fill="#86efac" stroke="#334155" d="M2031.25,-1377.75C2031.25,-1377.75 1902.75,-1377.75 1902.75,-1377.75 1896.75,-1377.75 1890.75,-1371.75 1890.75,-1365.75 1890.75,-1365.75 1890.75,-1348 1890.75,-1348 1890.75,-1342 1896.75,-1336 1902.75,-1336 1902.75,-1336 2031.25,-1336 2031.25,-1336 2037.25,-1336 2043.25,-1342 2043.25,-1348 2043.25,-1348 2043.25,-1365.75 2043.25,-1365.75 2043.25,-1371.75 2037.25,-1377.75 2031.25,-1377.75"/>
<text xml:space="preserve" text-anchor="middle" x="1967" y="-1364.25" font-family="Helvetica,sans-Serif" font-size="10.00">camfwk firmware</text>
<text xml:space="preserve" text-anchor="middle" x="1967" y="-1353" font-family="Helvetica,sans-Serif" font-size="10.00">(camfwk_freertos_sample_app)</text>
<text xml:space="preserve" text-anchor="middle" x="1967" y="-1341.75" font-family="Helvetica,sans-Serif" font-size="10.00">Deser+Sensor+VIN map</text>
</g>
<!-- CSI2&#45;&gt;Camfwk -->
<g id="edge49" class="edge">
<title>CSI2&#45;&gt;Camfwk</title>
<path fill="none" stroke="#16a34a" d="M3612.29,-1338.52C3612.29,-1330.98 3612.29,-1324 3612.29,-1324 3612.29,-1324 1927.95,-1324 1927.95,-1324 1927.95,-1324 1927.95,-1325.19 1927.95,-1325.19"/>
<polygon fill="#16a34a" stroke="#16a34a" points="1924.45,-1324.36 1927.95,-1334.36 1931.45,-1324.36 1924.45,-1324.36"/>
<text xml:space="preserve" text-anchor="middle" x="2093" y="-1472.08" font-family="Helvetica,sans-Serif" font-size="9.00" fill="#16a34a">VIN routing /</text>
<text xml:space="preserve" text-anchor="middle" x="2093" y="-1462.33" font-family="Helvetica,sans-Serif" font-size="9.00" fill="#16a34a">CSI lanes</text>
</g>
<!-- ISP -->
<g id="node9" class="node">
<title>ISP</title>
<path fill="#334155" stroke="#334155" d="M3647.75,-1088C3647.75,-1088 3606.25,-1088 3606.25,-1088 3600.25,-1088 3594.25,-1082 3594.25,-1076 3594.25,-1076 3594.25,-1064 3594.25,-1064 3594.25,-1058 3600.25,-1052 3606.25,-1052 3606.25,-1052 3647.75,-1052 3647.75,-1052 3653.75,-1052 3659.75,-1058 3659.75,-1064 3659.75,-1064 3659.75,-1076 3659.75,-1076 3659.75,-1082 3653.75,-1088 3647.75,-1088"/>
<text xml:space="preserve" text-anchor="middle" x="3627" y="-1066.12" font-family="Helvetica,sans-Serif" font-size="10.00">ISP / CISP</text>
</g>
<!-- VIN&#45;&gt;ISP -->
<g id="edge4" class="edge">
<title>VIN&#45;&gt;ISP</title>
<path fill="none" stroke="#475569" d="M3626.5,-1196.64C3626.5,-1196.64 3626.5,-1099.73 3626.5,-1099.73"/>
<polygon fill="#475569" stroke="#475569" points="3630,-1099.73 3626.5,-1089.73 3623,-1099.73 3630,-1099.73"/>
</g>
<!-- IMR -->
<g id="node10" class="node">
<title>IMR</title>
<path fill="#334155" stroke="#334155" d="M3651.75,-928.5C3651.75,-928.5 3604.25,-928.5 3604.25,-928.5 3598.25,-928.5 3592.25,-922.5 3592.25,-916.5 3592.25,-916.5 3592.25,-904.5 3592.25,-904.5 3592.25,-898.5 3598.25,-892.5 3604.25,-892.5 3604.25,-892.5 3651.75,-892.5 3651.75,-892.5 3657.75,-892.5 3663.75,-898.5 3663.75,-904.5 3663.75,-904.5 3663.75,-916.5 3663.75,-916.5 3663.75,-922.5 3657.75,-928.5 3651.75,-928.5"/>
<text xml:space="preserve" text-anchor="middle" x="3628" y="-912.25" font-family="Helvetica,sans-Serif" font-size="10.00">IMR</text>
<text xml:space="preserve" text-anchor="middle" x="3628" y="-901" font-family="Helvetica,sans-Serif" font-size="10.00">resize / LDC</text>
</g>
<!-- ISP&#45;&gt;IMR -->
<g id="edge5" class="edge">
<title>ISP&#45;&gt;IMR</title>
<path fill="none" stroke="#475569" d="M3627,-1051.7C3627,-1051.7 3627,-940.1 3627,-940.1"/>
<polygon fill="#475569" stroke="#475569" points="3630.5,-940.1 3627,-930.1 3623.5,-940.1 3630.5,-940.1"/>
</g>
<!-- IMR&#45;&gt;VSPD -->
<g id="edge6" class="edge">
<title>IMR&#45;&gt;VSPD</title>
<path fill="none" stroke="#475569" d="M3638.69,-892.15C3638.69,-892.15 3638.69,-788.3 3638.69,-788.3"/>
<polygon fill="#475569" stroke="#475569" points="3642.19,-788.3 3638.69,-778.3 3635.19,-788.3 3642.19,-788.3"/>
</g>
<!-- DPTX -->
<g id="node12" class="node">
<title>DPTX</title>
<path fill="#334155" stroke="#334155" d="M3703.38,-601.5C3703.38,-601.5 3644.62,-601.5 3644.62,-601.5 3638.62,-601.5 3632.62,-595.5 3632.62,-589.5 3632.62,-589.5 3632.62,-577.5 3632.62,-577.5 3632.62,-571.5 3638.62,-565.5 3644.62,-565.5 3644.62,-565.5 3703.38,-565.5 3703.38,-565.5 3709.38,-565.5 3715.38,-571.5 3715.38,-577.5 3715.38,-577.5 3715.38,-589.5 3715.38,-589.5 3715.38,-595.5 3709.38,-601.5 3703.38,-601.5"/>
<text xml:space="preserve" text-anchor="middle" x="3674" y="-585.25" font-family="Helvetica,sans-Serif" font-size="10.00">DPTX</text>
<text xml:space="preserve" text-anchor="middle" x="3674" y="-574" font-family="Helvetica,sans-Serif" font-size="10.00">DisplayPort TX</text>
</g>
<!-- VSPD&#45;&gt;DPTX -->
<g id="edge7" class="edge">
<title>VSPD&#45;&gt;DPTX</title>
<path fill="none" stroke="#475569" d="M3643,-739.99C3643,-739.99 3643,-613.41 3643,-613.41"/>
<polygon fill="#475569" stroke="#475569" points="3646.5,-613.41 3643,-603.41 3639.5,-613.41 3646.5,-613.41"/>
</g>
<!-- Panel0 -->
<g id="node25" class="node">
<title>Panel0</title>
<path fill="#334155" stroke="#334155" d="M3623.62,-470.62C3623.62,-470.62 3572.38,-470.62 3572.38,-470.62 3566.38,-470.62 3560.38,-464.62 3560.38,-458.62 3560.38,-458.62 3560.38,-446.62 3560.38,-446.62 3560.38,-440.62 3566.38,-434.62 3572.38,-434.62 3572.38,-434.62 3623.62,-434.62 3623.62,-434.62 3629.62,-434.62 3635.62,-440.62 3635.62,-446.62 3635.62,-446.62 3635.62,-458.62 3635.62,-458.62 3635.62,-464.62 3629.62,-470.62 3623.62,-470.62"/>
<text xml:space="preserve" text-anchor="middle" x="3598" y="-454.38" font-family="Helvetica,sans-Serif" font-size="10.00">Display 0</text>
<text xml:space="preserve" text-anchor="middle" x="3598" y="-443.12" font-family="Helvetica,sans-Serif" font-size="10.00">Main (cluster)</text>
</g>
<!-- DPTX&#45;&gt;Panel0 -->
<g id="edge8" class="edge">
<title>DPTX&#45;&gt;Panel0</title>
<path fill="none" stroke="#475569" d="M3648.25,-565.08C3648.25,-529.11 3648.25,-453 3648.25,-453 3648.25,-453 3647.03,-453 3647.03,-453"/>
<polygon fill="#475569" stroke="#475569" points="3647.6,-449.5 3637.6,-453 3647.6,-456.5 3647.6,-449.5"/>
</g>
<!-- Panel1 -->
<g id="node26" class="node">
<title>Panel1</title>
<path fill="#334155" stroke="#334155" d="M3733.12,-470.62C3733.12,-470.62 3672.88,-470.62 3672.88,-470.62 3666.88,-470.62 3660.88,-464.62 3660.88,-458.62 3660.88,-458.62 3660.88,-446.62 3660.88,-446.62 3660.88,-440.62 3666.88,-434.62 3672.88,-434.62 3672.88,-434.62 3733.12,-434.62 3733.12,-434.62 3739.12,-434.62 3745.12,-440.62 3745.12,-446.62 3745.12,-446.62 3745.12,-458.62 3745.12,-458.62 3745.12,-464.62 3739.12,-470.62 3733.12,-470.62"/>
<text xml:space="preserve" text-anchor="middle" x="3703" y="-454.38" font-family="Helvetica,sans-Serif" font-size="10.00">Display 1</text>
<text xml:space="preserve" text-anchor="middle" x="3703" y="-443.12" font-family="Helvetica,sans-Serif" font-size="10.00">Passenger / IVI</text>
</g>
<!-- DPTX&#45;&gt;Panel1 -->
<g id="edge9" class="edge">
<title>DPTX&#45;&gt;Panel1</title>
<path fill="none" stroke="#475569" stroke-dasharray="5,2" d="M3688.12,-565.03C3688.12,-565.03 3688.12,-482.52 3688.12,-482.52"/>
<polygon fill="#475569" stroke="#475569" points="3691.63,-482.52 3688.13,-472.52 3684.63,-482.52 3691.63,-482.52"/>
</g>
<!-- VCON -->
<g id="node13" class="node">
<title>VCON</title>
<path fill="#334155" stroke="#334155" d="M3759.38,-928.5C3759.38,-928.5 3700.62,-928.5 3700.62,-928.5 3694.62,-928.5 3688.62,-922.5 3688.62,-916.5 3688.62,-916.5 3688.62,-904.5 3688.62,-904.5 3688.62,-898.5 3694.62,-892.5 3700.62,-892.5 3700.62,-892.5 3759.38,-892.5 3759.38,-892.5 3765.38,-892.5 3771.38,-898.5 3771.38,-904.5 3771.38,-904.5 3771.38,-916.5 3771.38,-916.5 3771.38,-922.5 3765.38,-928.5 3759.38,-928.5"/>
<text xml:space="preserve" text-anchor="middle" x="3730" y="-912.25" font-family="Helvetica,sans-Serif" font-size="10.00">VCON</text>
<text xml:space="preserve" text-anchor="middle" x="3730" y="-901" font-family="Helvetica,sans-Serif" font-size="10.00">video converter</text>
</g>
<!-- VCON&#45;&gt;VSPD -->
<g id="edge10" class="edge">
<title>VCON&#45;&gt;VSPD</title>
<path fill="none" stroke="#475569" stroke-dasharray="5,2" d="M3706.46,-892.1C3706.46,-851.54 3706.46,-758 3706.46,-758 3706.46,-758 3665.28,-758 3665.28,-758"/>
<polygon fill="#475569" stroke="#475569" points="3665.28,-754.5 3655.28,-758 3665.28,-761.5 3665.28,-754.5"/>
</g>
<!-- UVCS -->
<g id="node14" class="node">
<title>UVCS</title>
<path fill="#334155" stroke="#334155" d="M3717,-1374.88C3717,-1374.88 3687,-1374.88 3687,-1374.88 3681,-1374.88 3675,-1368.88 3675,-1362.88 3675,-1362.88 3675,-1350.88 3675,-1350.88 3675,-1344.88 3681,-1338.88 3687,-1338.88 3687,-1338.88 3717,-1338.88 3717,-1338.88 3723,-1338.88 3729,-1344.88 3729,-1350.88 3729,-1350.88 3729,-1362.88 3729,-1362.88 3729,-1368.88 3723,-1374.88 3717,-1374.88"/>
<text xml:space="preserve" text-anchor="middle" x="3702" y="-1353" font-family="Helvetica,sans-Serif" font-size="10.00">UVCS</text>
</g>
<!-- UVCS&#45;&gt;VIN -->
<g id="edge11" class="edge">
<title>UVCS&#45;&gt;VIN</title>
<path fill="none" stroke="#475569" stroke-dasharray="5,2" d="M3674.68,-1357C3664.14,-1357 3654.56,-1357 3654.56,-1357 3654.56,-1357 3654.56,-1244.79 3654.56,-1244.79"/>
<polygon fill="#475569" stroke="#475569" points="3658.06,-1244.79 3654.56,-1234.79 3651.06,-1244.79 3658.06,-1244.79"/>
</g>
<!-- RPMsgR -->
<g id="node46" class="node">
<title>RPMsgR</title>
<path fill="#fcd34d" stroke="#334155" d="M1692.5,-1233C1692.5,-1233 1577.5,-1233 1577.5,-1233 1571.5,-1233 1565.5,-1227 1565.5,-1221 1565.5,-1221 1565.5,-1209 1565.5,-1209 1565.5,-1203 1571.5,-1197 1577.5,-1197 1577.5,-1197 1692.5,-1197 1692.5,-1197 1698.5,-1197 1704.5,-1203 1704.5,-1209 1704.5,-1209 1704.5,-1221 1704.5,-1221 1704.5,-1227 1698.5,-1233 1692.5,-1233"/>
<text xml:space="preserve" text-anchor="middle" x="1635" y="-1216.75" font-family="Helvetica,sans-Serif" font-size="10.00">RPMsg endpoints</text>
<text xml:space="preserve" text-anchor="middle" x="1635" y="-1205.5" font-family="Helvetica,sans-Serif" font-size="10.00">(camera proto, RVGC proto)</text>
</g>
<!-- MFIS&#45;&gt;RPMsgR -->
<g id="edge62" class="edge">
<title>MFIS&#45;&gt;RPMsgR</title>
<path fill="none" stroke="#0891b2" d="M2931.33,-776.7C2931.33,-788.25 2931.33,-801 2931.33,-801 2931.33,-801 1579,-801 1579,-801 1579,-801 1579,-1185.16 1579,-1185.16"/>
<polygon fill="#0891b2" stroke="#0891b2" points="1575.5,-1185.16 1579,-1195.16 1582.5,-1185.16 1575.5,-1185.16"/>
<text xml:space="preserve" text-anchor="middle" x="228.75" y="-1015.58" font-family="Helvetica,sans-Serif" font-size="9.00" fill="#0891b2">HW mailbox</text>
</g>
<!-- IPMMU -->
<g id="node16" class="node">
<title>IPMMU</title>
<path fill="#334155" stroke="#334155" d="M2869.38,-776.38C2869.38,-776.38 2816.62,-776.38 2816.62,-776.38 2810.62,-776.38 2804.62,-770.38 2804.62,-764.38 2804.62,-764.38 2804.62,-752.38 2804.62,-752.38 2804.62,-746.38 2810.62,-740.38 2816.62,-740.38 2816.62,-740.38 2869.38,-740.38 2869.38,-740.38 2875.38,-740.38 2881.38,-746.38 2881.38,-752.38 2881.38,-752.38 2881.38,-764.38 2881.38,-764.38 2881.38,-770.38 2875.38,-776.38 2869.38,-776.38"/>
<text xml:space="preserve" text-anchor="middle" x="2843" y="-760.12" font-family="Helvetica,sans-Serif" font-size="10.00">IPMMU</text>
<text xml:space="preserve" text-anchor="middle" x="2843" y="-748.88" font-family="Helvetica,sans-Serif" font-size="10.00">DMA isolation</text>
</g>
<!-- DomDK -->
<g id="node50" class="node">
<title>DomDK</title>
<path fill="#334155" stroke="#334155" d="M1289.5,-931.38C1289.5,-931.38 1048.5,-931.38 1048.5,-931.38 1042.5,-931.38 1036.5,-925.38 1036.5,-919.38 1036.5,-919.38 1036.5,-901.62 1036.5,-901.62 1036.5,-895.62 1042.5,-889.62 1048.5,-889.62 1048.5,-889.62 1289.5,-889.62 1289.5,-889.62 1295.5,-889.62 1301.5,-895.62 1301.5,-901.62 1301.5,-901.62 1301.5,-919.38 1301.5,-919.38 1301.5,-925.38 1295.5,-931.38 1289.5,-931.38"/>
<text xml:space="preserve" text-anchor="middle" x="1169" y="-917.88" font-family="Helvetica,sans-Serif" font-size="10.00">Linux 6.1.102 (xen&#45;troops/linux v6.1.102/rcar&#45;6.0.0.rc8&#45;xt)</text>
<text xml:space="preserve" text-anchor="middle" x="1169" y="-906.62" font-family="Helvetica,sans-Serif" font-size="10.00">image: rcar&#45;image&#45;adas</text>
<text xml:space="preserve" text-anchor="middle" x="1169" y="-895.38" font-family="Helvetica,sans-Serif" font-size="10.00">DTB: r8a78000&#45;ironhide&#45;domd.dtb</text>
</g>
<!-- IPMMU&#45;&gt;DomDK -->
<g id="edge64" class="edge">
<title>IPMMU&#45;&gt;DomDK</title>
<path fill="none" stroke="#0891b2" stroke-dasharray="5,2" d="M2804.28,-758C2624.28,-758 1878.06,-758 1878.06,-758 1878.06,-758 1878.06,-911 1878.06,-911 1878.06,-911 1313.47,-911 1313.47,-911"/>
<polygon fill="#0891b2" stroke="#0891b2" points="1313.47,-907.5 1303.47,-911 1313.47,-914.5 1313.47,-907.5"/>
</g>
<!-- AKernel -->
<g id="node59" class="node">
<title>AKernel</title>
<path fill="#fbcfe8" stroke="#334155" d="M948.38,-610C948.38,-610 781.62,-610 781.62,-610 775.62,-610 769.62,-604 769.62,-598 769.62,-598 769.62,-569 769.62,-569 769.62,-563 775.62,-557 781.62,-557 781.62,-557 948.38,-557 948.38,-557 954.38,-557 960.38,-563 960.38,-569 960.38,-569 960.38,-598 960.38,-598 960.38,-604 954.38,-610 948.38,-610"/>
<text xml:space="preserve" text-anchor="middle" x="865" y="-596.5" font-family="Helvetica,sans-Serif" font-size="10.00">Android kernel</text>
<text xml:space="preserve" text-anchor="middle" x="865" y="-585.25" font-family="Helvetica,sans-Serif" font-size="10.00">common&#45;android14&#45;6.1 (xen&#45;troops fork)</text>
<text xml:space="preserve" text-anchor="middle" x="865" y="-574" font-family="Helvetica,sans-Serif" font-size="10.00">build target: xen_virtual_device_aarch64</text>
<text xml:space="preserve" text-anchor="middle" x="865" y="-562.75" font-family="Helvetica,sans-Serif" font-size="10.00">(BUILT WITH kleaf/bazel)</text>
</g>
<!-- IPMMU&#45;&gt;AKernel -->
<g id="edge63" class="edge">
<title>IPMMU&#45;&gt;AKernel</title>
<path fill="none" stroke="#0891b2" stroke-dasharray="5,2" d="M2843,-740C2843,-699.47 2843,-606 2843,-606 2843,-606 972.25,-606 972.25,-606"/>
<polygon fill="#0891b2" stroke="#0891b2" points="972.25,-602.5 962.25,-606 972.25,-609.5 972.25,-602.5"/>
</g>
<!-- RSIP -->
<g id="node17" class="node">
<title>RSIP</title>
<path fill="#334155" stroke="#334155" d="M3058.62,-776.38C3058.62,-776.38 3019.38,-776.38 3019.38,-776.38 3013.38,-776.38 3007.38,-770.38 3007.38,-764.38 3007.38,-764.38 3007.38,-752.38 3007.38,-752.38 3007.38,-746.38 3013.38,-740.38 3019.38,-740.38 3019.38,-740.38 3058.62,-740.38 3058.62,-740.38 3064.62,-740.38 3070.62,-746.38 3070.62,-752.38 3070.62,-752.38 3070.62,-764.38 3070.62,-764.38 3070.62,-770.38 3064.62,-776.38 3058.62,-776.38"/>
<text xml:space="preserve" text-anchor="middle" x="3039" y="-760.12" font-family="Helvetica,sans-Serif" font-size="10.00">RSIP&#45;M</text>
<text xml:space="preserve" text-anchor="middle" x="3039" y="-748.88" font-family="Helvetica,sans-Serif" font-size="10.00">security IP</text>
</g>
<!-- UFS -->
<g id="node18" class="node">
<title>UFS</title>
<path fill="#334155" stroke="#334155" d="M3154.75,-776.38C3154.75,-776.38 3107.25,-776.38 3107.25,-776.38 3101.25,-776.38 3095.25,-770.38 3095.25,-764.38 3095.25,-764.38 3095.25,-752.38 3095.25,-752.38 3095.25,-746.38 3101.25,-740.38 3107.25,-740.38 3107.25,-740.38 3154.75,-740.38 3154.75,-740.38 3160.75,-740.38 3166.75,-746.38 3166.75,-752.38 3166.75,-752.38 3166.75,-764.38 3166.75,-764.38 3166.75,-770.38 3160.75,-776.38 3154.75,-776.38"/>
<text xml:space="preserve" text-anchor="middle" x="3131" y="-754.5" font-family="Helvetica,sans-Serif" font-size="10.00">UFS storage</text>
</g>
<!-- HyperFlash -->
<g id="node19" class="node">
<title>HyperFlash</title>
<path fill="#334155" stroke="#334155" d="M3246.12,-776.38C3246.12,-776.38 3203.88,-776.38 3203.88,-776.38 3197.88,-776.38 3191.88,-770.38 3191.88,-764.38 3191.88,-764.38 3191.88,-752.38 3191.88,-752.38 3191.88,-746.38 3197.88,-740.38 3203.88,-740.38 3203.88,-740.38 3246.12,-740.38 3246.12,-740.38 3252.12,-740.38 3258.12,-746.38 3258.12,-752.38 3258.12,-752.38 3258.12,-764.38 3258.12,-764.38 3258.12,-770.38 3252.12,-776.38 3246.12,-776.38"/>
<text xml:space="preserve" text-anchor="middle" x="3225" y="-754.5" font-family="Helvetica,sans-Serif" font-size="10.00">HyperFlash</text>
</g>
<!-- EthSwt -->
<g id="node20" class="node">
<title>EthSwt</title>
<path fill="#334155" stroke="#334155" d="M3355.12,-776.38C3355.12,-776.38 3294.88,-776.38 3294.88,-776.38 3288.88,-776.38 3282.88,-770.38 3282.88,-764.38 3282.88,-764.38 3282.88,-752.38 3282.88,-752.38 3282.88,-746.38 3288.88,-740.38 3294.88,-740.38 3294.88,-740.38 3355.12,-740.38 3355.12,-740.38 3361.12,-740.38 3367.12,-746.38 3367.12,-752.38 3367.12,-752.38 3367.12,-764.38 3367.12,-764.38 3367.12,-770.38 3361.12,-776.38 3355.12,-776.38"/>
<text xml:space="preserve" text-anchor="middle" x="3325" y="-754.5" font-family="Helvetica,sans-Serif" font-size="10.00">Ethernet switch</text>
</g>
<!-- CAN -->
<g id="node21" class="node">
<title>CAN</title>
<path fill="#334155" stroke="#334155" d="M3459.5,-776.38C3459.5,-776.38 3404.5,-776.38 3404.5,-776.38 3398.5,-776.38 3392.5,-770.38 3392.5,-764.38 3392.5,-764.38 3392.5,-752.38 3392.5,-752.38 3392.5,-746.38 3398.5,-740.38 3404.5,-740.38 3404.5,-740.38 3459.5,-740.38 3459.5,-740.38 3465.5,-740.38 3471.5,-746.38 3471.5,-752.38 3471.5,-752.38 3471.5,-764.38 3471.5,-764.38 3471.5,-770.38 3465.5,-776.38 3459.5,-776.38"/>
<text xml:space="preserve" text-anchor="middle" x="3432" y="-754.5" font-family="Helvetica,sans-Serif" font-size="10.00">CAN/CAN&#45;FD</text>
</g>
<!-- USB -->
<g id="node22" class="node">
<title>USB</title>
<path fill="#334155" stroke="#334155" d="M3555.75,-776.38C3555.75,-776.38 3508.25,-776.38 3508.25,-776.38 3502.25,-776.38 3496.25,-770.38 3496.25,-764.38 3496.25,-764.38 3496.25,-752.38 3496.25,-752.38 3496.25,-746.38 3502.25,-740.38 3508.25,-740.38 3508.25,-740.38 3555.75,-740.38 3555.75,-740.38 3561.75,-740.38 3567.75,-746.38 3567.75,-752.38 3567.75,-752.38 3567.75,-764.38 3567.75,-764.38 3567.75,-770.38 3561.75,-776.38 3555.75,-776.38"/>
<text xml:space="preserve" text-anchor="middle" x="3532" y="-754.5" font-family="Helvetica,sans-Serif" font-size="10.00">USB Type&#45;C</text>
</g>
<!-- Sensor -->
<g id="node23" class="node">
<title>Sensor</title>
<path fill="#334155" stroke="#334155" d="M3523.62,-473.5C3523.62,-473.5 3424.38,-473.5 3424.38,-473.5 3418.38,-473.5 3412.38,-467.5 3412.38,-461.5 3412.38,-461.5 3412.38,-443.75 3412.38,-443.75 3412.38,-437.75 3418.38,-431.75 3424.38,-431.75 3424.38,-431.75 3523.62,-431.75 3523.62,-431.75 3529.62,-431.75 3535.62,-437.75 3535.62,-443.75 3535.62,-443.75 3535.62,-461.5 3535.62,-461.5 3535.62,-467.5 3529.62,-473.5 3523.62,-473.5"/>
<text xml:space="preserve" text-anchor="middle" x="3474" y="-460" font-family="Helvetica,sans-Serif" font-size="10.00">Camera sensors</text>
<text xml:space="preserve" text-anchor="middle" x="3474" y="-448.75" font-family="Helvetica,sans-Serif" font-size="10.00">IMX390/IMX623/IMX728</text>
<text xml:space="preserve" text-anchor="middle" x="3474" y="-437.5" font-family="Helvetica,sans-Serif" font-size="10.00">(GMSL2)</text>
</g>
<!-- SerDes -->
<g id="node24" class="node">
<title>SerDes</title>
<path fill="#334155" stroke="#334155" d="M3679.75,-310.25C3679.75,-310.25 3584.25,-310.25 3584.25,-310.25 3578.25,-310.25 3572.25,-304.25 3572.25,-298.25 3572.25,-298.25 3572.25,-286.25 3572.25,-286.25 3572.25,-280.25 3578.25,-274.25 3584.25,-274.25 3584.25,-274.25 3679.75,-274.25 3679.75,-274.25 3685.75,-274.25 3691.75,-280.25 3691.75,-286.25 3691.75,-286.25 3691.75,-298.25 3691.75,-298.25 3691.75,-304.25 3685.75,-310.25 3679.75,-310.25"/>
<text xml:space="preserve" text-anchor="middle" x="3632" y="-294" font-family="Helvetica,sans-Serif" font-size="10.00">GMSL SerDes</text>
<text xml:space="preserve" text-anchor="middle" x="3632" y="-282.75" font-family="Helvetica,sans-Serif" font-size="10.00">MAX9296/MAX96717…</text>
</g>
<!-- Sensor&#45;&gt;SerDes -->
<g id="edge1" class="edge">
<title>Sensor&#45;&gt;SerDes</title>
<path fill="none" stroke="#475569" d="M3474,-431.45C3474,-389.1 3474,-298 3474,-298 3474,-298 3560.3,-298 3560.3,-298"/>
<polygon fill="#475569" stroke="#475569" points="3560.3,-301.5 3570.3,-298 3560.3,-294.5 3560.3,-301.5"/>
</g>
<!-- SerDes&#45;&gt;CSI2 -->
<g id="edge2" class="edge">
<title>SerDes&#45;&gt;CSI2</title>
<path fill="none" stroke="#475569" d="M3572.04,-286C3495.27,-286 3372.06,-286 3372.06,-286 3372.06,-286 3372.06,-1351 3372.06,-1351 3372.06,-1351 3579.95,-1351 3579.95,-1351"/>
<polygon fill="#475569" stroke="#475569" points="3579.95,-1354.5 3589.95,-1351 3579.95,-1347.5 3579.95,-1354.5"/>
</g>
<!-- BootROM -->
<g id="node27" class="node">
<title>BootROM</title>
<path fill="#fde68a" stroke="#334155" d="M2463.75,-1909.12C2463.75,-1909.12 2428.25,-1909.12 2428.25,-1909.12 2422.25,-1909.12 2416.25,-1903.12 2416.25,-1897.12 2416.25,-1897.12 2416.25,-1885.12 2416.25,-1885.12 2416.25,-1879.12 2422.25,-1873.12 2428.25,-1873.12 2428.25,-1873.12 2463.75,-1873.12 2463.75,-1873.12 2469.75,-1873.12 2475.75,-1879.12 2475.75,-1885.12 2475.75,-1885.12 2475.75,-1897.12 2475.75,-1897.12 2475.75,-1903.12 2469.75,-1909.12 2463.75,-1909.12"/>
<text xml:space="preserve" text-anchor="middle" x="2446" y="-1892.88" font-family="Helvetica,sans-Serif" font-size="10.00">BootROM</text>
<text xml:space="preserve" text-anchor="middle" x="2446" y="-1881.62" font-family="Helvetica,sans-Serif" font-size="10.00">(on&#45;chip)</text>
</g>
<!-- IPL1 -->
<g id="node28" class="node">
<title>IPL1</title>
<path fill="#fde68a" stroke="#334155" d="M2506.88,-1759.62C2506.88,-1759.62 2385.12,-1759.62 2385.12,-1759.62 2379.12,-1759.62 2373.12,-1753.62 2373.12,-1747.62 2373.12,-1747.62 2373.12,-1729.88 2373.12,-1729.88 2373.12,-1723.88 2379.12,-1717.88 2385.12,-1717.88 2385.12,-1717.88 2506.88,-1717.88 2506.88,-1717.88 2512.88,-1717.88 2518.88,-1723.88 2518.88,-1729.88 2518.88,-1729.88 2518.88,-1747.62 2518.88,-1747.62 2518.88,-1753.62 2512.88,-1759.62 2506.88,-1759.62"/>
<text xml:space="preserve" text-anchor="middle" x="2446" y="-1746.12" font-family="Helvetica,sans-Serif" font-size="10.00">1st_ipl_normal_boot_cert_a_b</text>
<text xml:space="preserve" text-anchor="middle" x="2446" y="-1734.88" font-family="Helvetica,sans-Serif" font-size="10.00">+ 1st_ipl_rsip_m</text>
<text xml:space="preserve" text-anchor="middle" x="2446" y="-1723.62" font-family="Helvetica,sans-Serif" font-size="10.00">(HyperFlash @0x0/0x40000)</text>
</g>
<!-- BootROM&#45;&gt;IPL1 -->
<g id="edge12" class="edge">
<title>BootROM&#45;&gt;IPL1</title>
<path fill="none" stroke="#475569" d="M2446,-1872.75C2446,-1872.75 2446,-1771.4 2446,-1771.4"/>
<polygon fill="#475569" stroke="#475569" points="2449.5,-1771.4 2446,-1761.4 2442.5,-1771.4 2449.5,-1771.4"/>
</g>
<!-- IPL2_R52 -->
<g id="node29" class="node">
<title>IPL2_R52</title>
<path fill="#fde68a" stroke="#334155" d="M2432.5,-1634.38C2432.5,-1634.38 2305.5,-1634.38 2305.5,-1634.38 2299.5,-1634.38 2293.5,-1628.38 2293.5,-1622.38 2293.5,-1622.38 2293.5,-1610.38 2293.5,-1610.38 2293.5,-1604.38 2299.5,-1598.38 2305.5,-1598.38 2305.5,-1598.38 2432.5,-1598.38 2432.5,-1598.38 2438.5,-1598.38 2444.5,-1604.38 2444.5,-1610.38 2444.5,-1610.38 2444.5,-1622.38 2444.5,-1622.38 2444.5,-1628.38 2438.5,-1634.38 2432.5,-1634.38"/>
<text xml:space="preserve" text-anchor="middle" x="2369" y="-1618.12" font-family="Helvetica,sans-Serif" font-size="10.00">2nd_ipl_rt_core_cluster2_core0</text>
<text xml:space="preserve" text-anchor="middle" x="2369" y="-1606.88" font-family="Helvetica,sans-Serif" font-size="10.00">(R52 c2/core0 boot)</text>
</g>
<!-- IPL1&#45;&gt;IPL2_R52 -->
<g id="edge13" class="edge">
<title>IPL1&#45;&gt;IPL2_R52</title>
<path fill="none" stroke="#475569" d="M2408.81,-1717.43C2408.81,-1717.43 2408.81,-1646.17 2408.81,-1646.17"/>
<polygon fill="#475569" stroke="#475569" points="2412.31,-1646.17 2408.81,-1636.17 2405.31,-1646.17 2412.31,-1646.17"/>
</g>
<!-- BL31 -->
<g id="node33" class="node">
<title>BL31</title>
<path fill="#fde68a" stroke="#334155" d="M2563.75,-1634.38C2563.75,-1634.38 2486.25,-1634.38 2486.25,-1634.38 2480.25,-1634.38 2474.25,-1628.38 2474.25,-1622.38 2474.25,-1622.38 2474.25,-1610.38 2474.25,-1610.38 2474.25,-1604.38 2480.25,-1598.38 2486.25,-1598.38 2486.25,-1598.38 2563.75,-1598.38 2563.75,-1598.38 2569.75,-1598.38 2575.75,-1604.38 2575.75,-1610.38 2575.75,-1610.38 2575.75,-1622.38 2575.75,-1622.38 2575.75,-1628.38 2569.75,-1634.38 2563.75,-1634.38"/>
<text xml:space="preserve" text-anchor="middle" x="2525" y="-1618.12" font-family="Helvetica,sans-Serif" font-size="10.00">bl31&#45;ironhide</text>
<text xml:space="preserve" text-anchor="middle" x="2525" y="-1606.88" font-family="Helvetica,sans-Serif" font-size="10.00">(ARM TF&#45;A — EL3)</text>
</g>
<!-- IPL1&#45;&gt;BL31 -->
<g id="edge17" class="edge">
<title>IPL1&#45;&gt;BL31</title>
<path fill="none" stroke="#475569" d="M2496.56,-1717.43C2496.56,-1717.43 2496.56,-1646.17 2496.56,-1646.17"/>
<polygon fill="#475569" stroke="#475569" points="2500.06,-1646.17 2496.56,-1636.17 2493.06,-1646.17 2500.06,-1646.17"/>
</g>
<!-- SCP_FW -->
<g id="node30" class="node">
<title>SCP_FW</title>
<path fill="#fde68a" stroke="#334155" d="M2244.25,-1544.5C2244.25,-1544.5 2145.75,-1544.5 2145.75,-1544.5 2139.75,-1544.5 2133.75,-1538.5 2133.75,-1532.5 2133.75,-1532.5 2133.75,-1520.5 2133.75,-1520.5 2133.75,-1514.5 2139.75,-1508.5 2145.75,-1508.5 2145.75,-1508.5 2244.25,-1508.5 2244.25,-1508.5 2250.25,-1508.5 2256.25,-1514.5 2256.25,-1520.5 2256.25,-1520.5 2256.25,-1532.5 2256.25,-1532.5 2256.25,-1538.5 2250.25,-1544.5 2244.25,-1544.5"/>
<text xml:space="preserve" text-anchor="middle" x="2195" y="-1528.25" font-family="Helvetica,sans-Serif" font-size="10.00">App_SCP_X5H_Sample</text>
<text xml:space="preserve" text-anchor="middle" x="2195" y="-1517" font-family="Helvetica,sans-Serif" font-size="10.00">(CM33 SCP firmware)</text>
</g>
<!-- IPL2_R52&#45;&gt;SCP_FW -->
<g id="edge14" class="edge">
<title>IPL2_R52&#45;&gt;SCP_FW</title>
<path fill="none" stroke="#475569" d="M2293.19,-1616C2246.3,-1616 2195,-1616 2195,-1616 2195,-1616 2195,-1556.13 2195,-1556.13"/>
<polygon fill="#475569" stroke="#475569" points="2198.5,-1556.13 2195,-1546.13 2191.5,-1556.13 2198.5,-1556.13"/>
</g>
<!-- MultifwkFW -->
<g id="node31" class="node">
<title>MultifwkFW</title>
<path fill="#fde68a" stroke="#334155" d="M2438.88,-1547.38C2438.88,-1547.38 2293.12,-1547.38 2293.12,-1547.38 2287.12,-1547.38 2281.12,-1541.38 2281.12,-1535.38 2281.12,-1535.38 2281.12,-1517.62 2281.12,-1517.62 2281.12,-1511.62 2287.12,-1505.62 2293.12,-1505.62 2293.12,-1505.62 2438.88,-1505.62 2438.88,-1505.62 2444.88,-1505.62 2450.88,-1511.62 2450.88,-1517.62 2450.88,-1517.62 2450.88,-1535.38 2450.88,-1535.38 2450.88,-1541.38 2444.88,-1547.38 2438.88,-1547.38"/>
<text xml:space="preserve" text-anchor="middle" x="2366" y="-1533.88" font-family="Helvetica,sans-Serif" font-size="10.00">multifwk_freertos_sample_app_x5h</text>
<text xml:space="preserve" text-anchor="middle" x="2366" y="-1522.62" font-family="Helvetica,sans-Serif" font-size="10.00">(camfwk + disfwk on R52 c0/c1)</text>
<text xml:space="preserve" text-anchor="middle" x="2366" y="-1511.38" font-family="Helvetica,sans-Serif" font-size="10.00">DomD / DomU variants</text>
</g>
<!-- IPL2_R52&#45;&gt;MultifwkFW -->
<g id="edge15" class="edge">
<title>IPL2_R52&#45;&gt;MultifwkFW</title>
<path fill="none" stroke="#475569" d="M2343.83,-1598.19C2343.83,-1598.19 2343.83,-1559.33 2343.83,-1559.33"/>
<polygon fill="#475569" stroke="#475569" points="2347.33,-1559.33 2343.83,-1549.33 2340.33,-1559.33 2347.33,-1559.33"/>
</g>
<!-- NPUFW -->
<g id="node32" class="node">
<title>NPUFW</title>
<path fill="#fde68a" stroke="#334155" d="M2761.25,-1544.5C2761.25,-1544.5 2614.75,-1544.5 2614.75,-1544.5 2608.75,-1544.5 2602.75,-1538.5 2602.75,-1532.5 2602.75,-1532.5 2602.75,-1520.5 2602.75,-1520.5 2602.75,-1514.5 2608.75,-1508.5 2614.75,-1508.5 2614.75,-1508.5 2761.25,-1508.5 2761.25,-1508.5 2767.25,-1508.5 2773.25,-1514.5 2773.25,-1520.5 2773.25,-1520.5 2773.25,-1532.5 2773.25,-1532.5 2773.25,-1538.5 2767.25,-1544.5 2761.25,-1544.5"/>
<text xml:space="preserve" text-anchor="middle" x="2688" y="-1522.62" font-family="Helvetica,sans-Serif" font-size="10.00">X5H_NPU0_FW / X5H_NPU1_FW</text>
</g>
<!-- IPL2_R52&#45;&gt;NPUFW -->
<g id="edge16" class="edge">
<title>IPL2_R52&#45;&gt;NPUFW</title>
<path fill="none" stroke="#475569" d="M2394.17,-1598.06C2394.17,-1582.95 2394.17,-1564 2394.17,-1564 2394.17,-1564 2688,-1564 2688,-1564 2688,-1564 2688,-1556.32 2688,-1556.32"/>
<polygon fill="#475569" stroke="#475569" points="2691.5,-1556.32 2688,-1546.32 2684.5,-1556.32 2691.5,-1556.32"/>
</g>
<!-- SCPApp -->
<g id="node45" class="node">
<title>SCPApp</title>
<path fill="#bbf7d0" stroke="#334155" d="M1853.38,-1374.88C1853.38,-1374.88 1782.62,-1374.88 1782.62,-1374.88 1776.62,-1374.88 1770.62,-1368.88 1770.62,-1362.88 1770.62,-1362.88 1770.62,-1350.88 1770.62,-1350.88 1770.62,-1344.88 1776.62,-1338.88 1782.62,-1338.88 1782.62,-1338.88 1853.38,-1338.88 1853.38,-1338.88 1859.38,-1338.88 1865.38,-1344.88 1865.38,-1350.88 1865.38,-1350.88 1865.38,-1362.88 1865.38,-1362.88 1865.38,-1368.88 1859.38,-1374.88 1853.38,-1374.88"/>
<text xml:space="preserve" text-anchor="middle" x="1818" y="-1358.62" font-family="Helvetica,sans-Serif" font-size="10.00">cr52_mcal_scp</text>
<text xml:space="preserve" text-anchor="middle" x="1818" y="-1347.38" font-family="Helvetica,sans-Serif" font-size="10.00">SCP/CM33 collab</text>
</g>
<!-- SCP_FW&#45;&gt;SCPApp -->
<g id="edge68" class="edge">
<title>SCP_FW&#45;&gt;SCPApp</title>
<path fill="none" stroke="#15803d" stroke-dasharray="5,2" d="M2133.26,-1533C2035.55,-1533 1856.25,-1533 1856.25,-1533 1856.25,-1533 1856.25,-1386.57 1856.25,-1386.57"/>
<polygon fill="#15803d" stroke="#15803d" points="1859.75,-1386.57 1856.25,-1376.57 1852.75,-1386.57 1859.75,-1386.57"/>
</g>
<!-- MultifwkFW&#45;&gt;Camfwk -->
<g id="edge66" class="edge">
<title>MultifwkFW&#45;&gt;Camfwk</title>
<path fill="none" stroke="#15803d" stroke-dasharray="5,2" d="M2337.71,-1505.38C2337.71,-1459.94 2337.71,-1357 2337.71,-1357 2337.71,-1357 2054.88,-1357 2054.88,-1357"/>
<polygon fill="#15803d" stroke="#15803d" points="2054.88,-1353.5 2044.88,-1357 2054.88,-1360.5 2054.88,-1353.5"/>
</g>
<!-- Disfwk -->
<g id="node43" class="node">
<title>Disfwk</title>
<path fill="#86efac" stroke="#334155" d="M1720.25,-1090.88C1720.25,-1090.88 1597.75,-1090.88 1597.75,-1090.88 1591.75,-1090.88 1585.75,-1084.88 1585.75,-1078.88 1585.75,-1078.88 1585.75,-1061.12 1585.75,-1061.12 1585.75,-1055.12 1591.75,-1049.12 1597.75,-1049.12 1597.75,-1049.12 1720.25,-1049.12 1720.25,-1049.12 1726.25,-1049.12 1732.25,-1055.12 1732.25,-1061.12 1732.25,-1061.12 1732.25,-1078.88 1732.25,-1078.88 1732.25,-1084.88 1726.25,-1090.88 1720.25,-1090.88"/>
<text xml:space="preserve" text-anchor="middle" x="1659" y="-1077.38" font-family="Helvetica,sans-Serif" font-size="10.00">disfwk firmware</text>
<text xml:space="preserve" text-anchor="middle" x="1659" y="-1066.12" font-family="Helvetica,sans-Serif" font-size="10.00">(disfwk_freertos_sample_app)</text>
<text xml:space="preserve" text-anchor="middle" x="1659" y="-1054.88" font-family="Helvetica,sans-Serif" font-size="10.00">VSPD/DPTX scanout, layers</text>
</g>
<!-- MultifwkFW&#45;&gt;Disfwk -->
<g id="edge67" class="edge">
<title>MultifwkFW&#45;&gt;Disfwk</title>
<path fill="none" stroke="#15803d" stroke-dasharray="5,2" d="M2394.29,-1505.22C2394.29,-1416.28 2394.29,-1079 2394.29,-1079 2394.29,-1079 1744.04,-1079 1744.04,-1079"/>
<polygon fill="#15803d" stroke="#15803d" points="1744.04,-1075.5 1734.04,-1079 1744.04,-1082.5 1744.04,-1075.5"/>
</g>
<!-- NPUFW&#45;&gt;NPU0 -->
<g id="edge69" class="edge">
<title>NPUFW&#45;&gt;NPU0</title>
<path fill="none" stroke="#475569" stroke-dasharray="5,2" d="M2773.58,-1521C2947.3,-1521 3325,-1521 3325,-1521 3325,-1521 3325,-940.28 3325,-940.28"/>
<polygon fill="#475569" stroke="#475569" points="3328.5,-940.28 3325,-930.28 3321.5,-940.28 3328.5,-940.28"/>
</g>
<!-- NPUFW&#45;&gt;NPU1 -->
<g id="edge70" class="edge">
<title>NPUFW&#45;&gt;NPU1</title>
<path fill="none" stroke="#475569" stroke-dasharray="5,2" d="M2773.66,-1533C2963.7,-1533 3404,-1533 3404,-1533 3404,-1533 3404,-940.31 3404,-940.31"/>
<polygon fill="#475569" stroke="#475569" points="3407.5,-940.31 3404,-930.31 3400.5,-940.31 3407.5,-940.31"/>
</g>
<!-- OPTEE -->
<g id="node34" class="node">
<title>OPTEE</title>
<path fill="#fde68a" stroke="#334155" d="M2565.75,-1544.5C2565.75,-1544.5 2488.25,-1544.5 2488.25,-1544.5 2482.25,-1544.5 2476.25,-1538.5 2476.25,-1532.5 2476.25,-1532.5 2476.25,-1520.5 2476.25,-1520.5 2476.25,-1514.5 2482.25,-1508.5 2488.25,-1508.5 2488.25,-1508.5 2565.75,-1508.5 2565.75,-1508.5 2571.75,-1508.5 2577.75,-1514.5 2577.75,-1520.5 2577.75,-1520.5 2577.75,-1532.5 2577.75,-1532.5 2577.75,-1538.5 2571.75,-1544.5 2565.75,-1544.5"/>
<text xml:space="preserve" text-anchor="middle" x="2527" y="-1528.25" font-family="Helvetica,sans-Serif" font-size="10.00">tee&#45;ironhide</text>
<text xml:space="preserve" text-anchor="middle" x="2527" y="-1517" font-family="Helvetica,sans-Serif" font-size="10.00">(OP&#45;TEE — S&#45;EL1)</text>
</g>
<!-- BL31&#45;&gt;OPTEE -->
<g id="edge18" class="edge">
<title>BL31&#45;&gt;OPTEE</title>
<path fill="none" stroke="#475569" d="M2526,-1598.19C2526,-1598.19 2526,-1556.48 2526,-1556.48"/>
<polygon fill="#475569" stroke="#475569" points="2529.5,-1556.48 2526,-1546.48 2522.5,-1556.48 2529.5,-1556.48"/>
</g>
<!-- UBoot -->
<g id="node35" class="node">
<title>UBoot</title>
<path fill="#fde68a" stroke="#334155" d="M2561.62,-1374.88C2561.62,-1374.88 2492.38,-1374.88 2492.38,-1374.88 2486.38,-1374.88 2480.38,-1368.88 2480.38,-1362.88 2480.38,-1362.88 2480.38,-1350.88 2480.38,-1350.88 2480.38,-1344.88 2486.38,-1338.88 2492.38,-1338.88 2492.38,-1338.88 2561.62,-1338.88 2561.62,-1338.88 2567.62,-1338.88 2573.62,-1344.88 2573.62,-1350.88 2573.62,-1350.88 2573.62,-1362.88 2573.62,-1362.88 2573.62,-1368.88 2567.62,-1374.88 2561.62,-1374.88"/>
<text xml:space="preserve" text-anchor="middle" x="2527" y="-1358.62" font-family="Helvetica,sans-Serif" font-size="10.00">u&#45;boot&#45;elf&#45;ironhide</text>
<text xml:space="preserve" text-anchor="middle" x="2527" y="-1347.38" font-family="Helvetica,sans-Serif" font-size="10.00">(BL33)</text>
</g>
<!-- OPTEE&#45;&gt;UBoot -->
<g id="edge19" class="edge">
<title>OPTEE&#45;&gt;UBoot</title>
<path fill="none" stroke="#475569" d="M2527,-1508.02C2527,-1508.02 2527,-1386.84 2527,-1386.84"/>
<polygon fill="#475569" stroke="#475569" points="2530.5,-1386.84 2527,-1376.84 2523.5,-1386.84 2530.5,-1386.84"/>
</g>
<!-- UBoot&#45;&gt;XenBin -->
<g id="edge20" class="edge">
<title>UBoot&#45;&gt;XenBin</title>
<path fill="none" stroke="#475569" d="M2527,-1338.62C2527,-1338.62 2527,-1244.7 2527,-1244.7"/>
<polygon fill="#475569" stroke="#475569" points="2530.5,-1244.7 2527,-1234.7 2523.5,-1244.7 2530.5,-1244.7"/>
</g>
<!-- Xen -->
<g id="node47" class="node">
<title>Xen</title>
<path fill="#ddd6fe" stroke="#334155" d="M671,-1088C671,-1088 517,-1088 517,-1088 511,-1088 505,-1082 505,-1076 505,-1076 505,-1064 505,-1064 505,-1058 511,-1052 517,-1052 517,-1052 671,-1052 671,-1052 677,-1052 683,-1058 683,-1064 683,-1064 683,-1076 683,-1076 683,-1082 677,-1088 671,-1088"/>
<text xml:space="preserve" text-anchor="middle" x="594" y="-1071.75" font-family="Helvetica,sans-Serif" font-size="10.00">Xen hypervisor (EL2)</text>
<text xml:space="preserve" text-anchor="middle" x="594" y="-1060.5" font-family="Helvetica,sans-Serif" font-size="10.00">XEN DTB: r8a78000&#45;ironhide&#45;xen.dtb</text>
</g>
<!-- XenBin&#45;&gt;Xen -->
<g id="edge65" class="edge">
<title>XenBin&#45;&gt;Xen</title>
<path fill="none" stroke="#7c3aed" stroke-dasharray="5,2" d="M2527,-1196.72C2527,-1175.68 2527,-1144 2527,-1144 2527,-1144 594,-1144 594,-1144 594,-1144 594,-1099.81 594,-1099.81"/>
<polygon fill="#7c3aed" stroke="#7c3aed" points="597.5,-1099.81 594,-1089.81 590.5,-1099.81 597.5,-1099.81"/>
</g>
<!-- OSAL -->
<g id="node37" class="node">
<title>OSAL</title>
<path fill="#bbf7d0" stroke="#334155" d="M1835.12,-1544.5C1835.12,-1544.5 1654.88,-1544.5 1654.88,-1544.5 1648.88,-1544.5 1642.88,-1538.5 1642.88,-1532.5 1642.88,-1532.5 1642.88,-1520.5 1642.88,-1520.5 1642.88,-1514.5 1648.88,-1508.5 1654.88,-1508.5 1654.88,-1508.5 1835.12,-1508.5 1835.12,-1508.5 1841.12,-1508.5 1847.12,-1514.5 1847.12,-1520.5 1847.12,-1520.5 1847.12,-1532.5 1847.12,-1532.5 1847.12,-1538.5 1841.12,-1544.5 1835.12,-1544.5"/>
<text xml:space="preserve" text-anchor="middle" x="1745" y="-1528.25" font-family="Helvetica,sans-Serif" font-size="10.00">OSAL / OSAL_wrapper</text>
<text xml:space="preserve" text-anchor="middle" x="1745" y="-1517" font-family="Helvetica,sans-Serif" font-size="10.00">(FreeRTOS + baremetal + Linux backends)</text>
</g>
<!-- DRV -->
<g id="node40" class="node">
<title>DRV</title>
<path fill="#bbf7d0" stroke="#334155" d="M2030.75,-931.38C2030.75,-931.38 1911.25,-931.38 1911.25,-931.38 1905.25,-931.38 1899.25,-925.38 1899.25,-919.38 1899.25,-919.38 1899.25,-901.62 1899.25,-901.62 1899.25,-895.62 1905.25,-889.62 1911.25,-889.62 1911.25,-889.62 2030.75,-889.62 2030.75,-889.62 2036.75,-889.62 2042.75,-895.62 2042.75,-901.62 2042.75,-901.62 2042.75,-919.38 2042.75,-919.38 2042.75,-925.38 2036.75,-931.38 2030.75,-931.38"/>
<text xml:space="preserve" text-anchor="middle" x="1971" y="-917.88" font-family="Helvetica,sans-Serif" font-size="10.00">SoC drivers</text>
<text xml:space="preserve" text-anchor="middle" x="1971" y="-906.62" font-family="Helvetica,sans-Serif" font-size="10.00">csi2 / vin / vspd / dptx / vcon</text>
<text xml:space="preserve" text-anchor="middle" x="1971" y="-895.38" font-family="Helvetica,sans-Serif" font-size="10.00">imr / uvcsdrv</text>
</g>
<!-- OSAL&#45;&gt;DRV -->
<g id="edge22" class="edge">
<title>OSAL&#45;&gt;DRV</title>
<path fill="none" stroke="#475569" d="M1751.44,-1508.05C1751.44,-1406.57 1751.44,-921 1751.44,-921 1751.44,-921 1887.29,-921 1887.29,-921"/>
<polygon fill="#475569" stroke="#475569" points="1887.29,-924.5 1897.29,-921 1887.29,-917.5 1887.29,-924.5"/>
</g>
<!-- MW -->
<g id="node41" class="node">
<title>MW</title>
<path fill="#bbf7d0" stroke="#334155" d="M1631.12,-1311C1631.12,-1311 1534.88,-1311 1534.88,-1311 1528.88,-1311 1522.88,-1305 1522.88,-1299 1522.88,-1299 1522.88,-1270 1522.88,-1270 1522.88,-1264 1528.88,-1258 1534.88,-1258 1534.88,-1258 1631.12,-1258 1631.12,-1258 1637.12,-1258 1643.12,-1264 1643.12,-1270 1643.12,-1270 1643.12,-1299 1643.12,-1299 1643.12,-1305 1637.12,-1311 1631.12,-1311"/>
<text xml:space="preserve" text-anchor="middle" x="1583" y="-1297.5" font-family="Helvetica,sans-Serif" font-size="10.00">Middleware libs</text>
<text xml:space="preserve" text-anchor="middle" x="1583" y="-1286.25" font-family="Helvetica,sans-Serif" font-size="10.00">canrout / canethconv</text>
<text xml:space="preserve" text-anchor="middle" x="1583" y="-1275" font-family="Helvetica,sans-Serif" font-size="10.00">ethswtcont / rivp_codec</text>
<text xml:space="preserve" text-anchor="middle" x="1583" y="-1263.75" font-family="Helvetica,sans-Serif" font-size="10.00">memory_allocator</text>
</g>
<!-- OSAL&#45;&gt;MW -->
<g id="edge23" class="edge">
<title>OSAL&#45;&gt;MW</title>
<path fill="none" stroke="#475569" d="M1723.67,-1508.18C1723.67,-1453.13 1723.67,-1293 1723.67,-1293 1723.67,-1293 1654.99,-1293 1654.99,-1293"/>
<polygon fill="#475569" stroke="#475569" points="1654.99,-1289.5 1644.99,-1293 1654.99,-1296.5 1654.99,-1289.5"/>
</g>
<!-- OSAL&#45;&gt;Camfwk -->
<g id="edge24" class="edge">
<title>OSAL&#45;&gt;Camfwk</title>
<path fill="none" stroke="#475569" d="M1847.36,-1521C1874.89,-1521 1897.19,-1521 1897.19,-1521 1897.19,-1521 1897.19,-1389.51 1897.19,-1389.51"/>
<polygon fill="#475569" stroke="#475569" points="1900.69,-1389.51 1897.19,-1379.51 1893.69,-1389.51 1900.69,-1389.51"/>
</g>
<!-- OSAL&#45;&gt;Disfwk -->
<g id="edge25" class="edge">
<title>OSAL&#45;&gt;Disfwk</title>
<path fill="none" stroke="#475569" d="M1727.96,-1508.04C1727.96,-1508.04 1727.96,-1102.8 1727.96,-1102.8"/>
<polygon fill="#475569" stroke="#475569" points="1731.46,-1102.8 1727.96,-1092.8 1724.46,-1102.8 1731.46,-1102.8"/>
</g>
<!-- Adas -->
<g id="node44" class="node">
<title>Adas</title>
<path fill="#bbf7d0" stroke="#334155" d="M1707.38,-1374.88C1707.38,-1374.88 1588.62,-1374.88 1588.62,-1374.88 1582.62,-1374.88 1576.62,-1368.88 1576.62,-1362.88 1576.62,-1362.88 1576.62,-1350.88 1576.62,-1350.88 1576.62,-1344.88 1582.62,-1338.88 1588.62,-1338.88 1588.62,-1338.88 1707.38,-1338.88 1707.38,-1338.88 1713.38,-1338.88 1719.38,-1344.88 1719.38,-1350.88 1719.38,-1350.88 1719.38,-1362.88 1719.38,-1362.88 1719.38,-1368.88 1713.38,-1374.88 1707.38,-1374.88"/>
<text xml:space="preserve" text-anchor="middle" x="1648" y="-1358.62" font-family="Helvetica,sans-Serif" font-size="10.00">adas_ref_app + sample apps</text>
<text xml:space="preserve" text-anchor="middle" x="1648" y="-1347.38" font-family="Helvetica,sans-Serif" font-size="10.00">(IMR, NPU, exfwk, drw2d…)</text>
</g>
<!-- OSAL&#45;&gt;Adas -->
<g id="edge26" class="edge">
<title>OSAL&#45;&gt;Adas</title>
<path fill="none" stroke="#475569" d="M1681.12,-1508.02C1681.12,-1508.02 1681.12,-1386.84 1681.12,-1386.84"/>
<polygon fill="#475569" stroke="#475569" points="1684.63,-1386.84 1681.13,-1376.84 1677.63,-1386.84 1684.63,-1386.84"/>
</g>
<!-- OSAL&#45;&gt;SCPApp -->
<g id="edge27" class="edge">
<title>OSAL&#45;&gt;SCPApp</title>
<path fill="none" stroke="#475569" d="M1808.88,-1508.02C1808.88,-1508.02 1808.88,-1386.84 1808.88,-1386.84"/>
<polygon fill="#475569" stroke="#475569" points="1812.38,-1386.84 1808.88,-1376.84 1805.38,-1386.84 1812.38,-1386.84"/>
</g>
<!-- FreeRTOS&#45;&gt;OSAL -->
<g id="edge21" class="edge">
<title>FreeRTOS&#45;&gt;OSAL</title>
<path fill="none" stroke="#475569" d="M1799.54,-1598.19C1799.54,-1598.19 1799.54,-1556.48 1799.54,-1556.48"/>
<polygon fill="#475569" stroke="#475569" points="1803.04,-1556.48 1799.54,-1546.48 1796.04,-1556.48 1803.04,-1556.48"/>
</g>
<!-- MCAL -->
<g id="node39" class="node">
<title>MCAL</title>
<path fill="#bbf7d0" stroke="#334155" d="M2016.38,-1634.38C2016.38,-1634.38 1915.62,-1634.38 1915.62,-1634.38 1909.62,-1634.38 1903.62,-1628.38 1903.62,-1622.38 1903.62,-1622.38 1903.62,-1610.38 1903.62,-1610.38 1903.62,-1604.38 1909.62,-1598.38 1915.62,-1598.38 1915.62,-1598.38 2016.38,-1598.38 2016.38,-1598.38 2022.38,-1598.38 2028.38,-1604.38 2028.38,-1610.38 2028.38,-1610.38 2028.38,-1622.38 2028.38,-1622.38 2028.38,-1628.38 2022.38,-1634.38 2016.38,-1634.38"/>
<text xml:space="preserve" text-anchor="middle" x="1966" y="-1612.5" font-family="Helvetica,sans-Serif" font-size="10.00">MCAL (AUTOSAR&#45;style)</text>
</g>
<!-- DRV&#45;&gt;CSI2 -->
<g id="edge73" class="edge">
<title>DRV&#45;&gt;CSI2</title>
<path fill="none" stroke="#475569" stroke-dasharray="5,2" d="M2043.01,-917C2240.92,-917 2778.46,-917 2778.46,-917 2778.46,-917 2778.46,-1363 2778.46,-1363 2778.46,-1363 3579.99,-1363 3579.99,-1363"/>
<polygon fill="#475569" stroke="#475569" points="3579.99,-1366.5 3589.99,-1363 3579.99,-1359.5 3579.99,-1366.5"/>
</g>
<!-- DRV&#45;&gt;VIN -->
<g id="edge74" class="edge">
<title>DRV&#45;&gt;VIN</title>
<path fill="none" stroke="#475569" stroke-dasharray="5,2" d="M2043.12,-904C2242.01,-904 2783.67,-904 2783.67,-904 2783.67,-904 2783.67,-1221 2783.67,-1221 2783.67,-1221 3581.47,-1221 3581.47,-1221"/>
<polygon fill="#475569" stroke="#475569" points="3581.47,-1224.5 3591.47,-1221 3581.47,-1217.5 3581.47,-1224.5"/>
</g>
<!-- DRV&#45;&gt;IMR -->
<g id="edge77" class="edge">
<title>DRV&#45;&gt;IMR</title>
<path fill="none" stroke="#475569" stroke-dasharray="5,2" d="M2014.05,-889.25C2014.05,-878.62 2014.05,-868 2014.05,-868 2014.05,-868 3624,-868 3624,-868 3624,-868 3624,-880.72 3624,-880.72"/>
<polygon fill="#475569" stroke="#475569" points="3620.5,-880.72 3624,-890.72 3627.5,-880.72 3620.5,-880.72"/>
</g>
<!-- DRV&#45;&gt;VSPD -->
<g id="edge75" class="edge">
<title>DRV&#45;&gt;VSPD</title>
<path fill="none" stroke="#475569" stroke-dasharray="5,2" d="M1927.95,-889.32C1927.95,-863.42 1927.95,-823 1927.95,-823 1927.95,-823 3609.31,-823 3609.31,-823 3609.31,-823 3609.31,-788.23 3609.31,-788.23"/>
<polygon fill="#475569" stroke="#475569" points="3612.81,-788.23 3609.31,-778.23 3605.81,-788.23 3612.81,-788.23"/>
</g>
<!-- DRV&#45;&gt;DPTX -->
<g id="edge76" class="edge">
<title>DRV&#45;&gt;DPTX</title>
<path fill="none" stroke="#475569" stroke-dasharray="5,2" d="M1985.35,-889.58C1985.35,-817.52 1985.35,-584 1985.35,-584 1985.35,-584 3620.74,-584 3620.74,-584"/>
<polygon fill="#475569" stroke="#475569" points="3620.74,-587.5 3630.74,-584 3620.74,-580.5 3620.74,-587.5"/>
</g>
<!-- DRV&#45;&gt;VCON -->
<g id="edge78" class="edge">
<title>DRV&#45;&gt;VCON</title>
<path fill="none" stroke="#475569" stroke-dasharray="5,2" d="M1956.65,-889.41C1956.65,-870.27 1956.65,-845 1956.65,-845 1956.65,-845 3697.54,-845 3697.54,-845 3697.54,-845 3697.54,-880.74 3697.54,-880.74"/>
<polygon fill="#475569" stroke="#475569" points="3694.04,-880.74 3697.54,-890.74 3701.04,-880.74 3694.04,-880.74"/>
</g>
<!-- MW&#45;&gt;DRV -->
<g id="edge30" class="edge">
<title>MW&#45;&gt;DRV</title>
<path fill="none" stroke="#475569" d="M1643.24,-1276C1755.48,-1276 1985.35,-1276 1985.35,-1276 1985.35,-1276 1985.35,-943.24 1985.35,-943.24"/>
<polygon fill="#475569" stroke="#475569" points="1988.85,-943.24 1985.35,-933.24 1981.85,-943.24 1988.85,-943.24"/>
</g>
<!-- Camfwk&#45;&gt;DRV -->
<g id="edge28" class="edge">
<title>Camfwk&#45;&gt;DRV</title>
<path fill="none" stroke="#475569" d="M2014.05,-1335.65C2014.05,-1335.65 2014.05,-943.37 2014.05,-943.37"/>
<polygon fill="#475569" stroke="#475569" points="2017.55,-943.37 2014.05,-933.37 2010.55,-943.37 2017.55,-943.37"/>
</g>
<!-- Camfwk&#45;&gt;RPMsgR -->
<g id="edge31" class="edge">
<title>Camfwk&#45;&gt;RPMsgR</title>
<path fill="none" stroke="#475569" d="M1896.42,-1335.69C1896.42,-1294.8 1896.42,-1209 1896.42,-1209 1896.42,-1209 1716.23,-1209 1716.23,-1209"/>
<polygon fill="#475569" stroke="#475569" points="1716.23,-1205.5 1706.23,-1209 1716.22,-1212.5 1716.23,-1205.5"/>
</g>
<!-- Camfwk&#45;&gt;RPMsgR -->
<g id="edge50" class="edge">
<title>Camfwk&#45;&gt;RPMsgR</title>
<path fill="none" stroke="#16a34a" d="M1893.58,-1335.64C1893.58,-1297.43 1893.58,-1221 1893.58,-1221 1893.58,-1221 1716.49,-1221 1716.49,-1221"/>
<polygon fill="#16a34a" stroke="#16a34a" points="1716.49,-1217.5 1706.49,-1221 1716.49,-1224.5 1716.49,-1217.5"/>
<text xml:space="preserve" text-anchor="middle" x="1719.62" y="-1285.7" font-family="Helvetica,sans-Serif" font-size="9.00" fill="#16a34a">frame&#45;ready</text>
<text xml:space="preserve" text-anchor="middle" x="1719.62" y="-1275.95" font-family="Helvetica,sans-Serif" font-size="9.00" fill="#16a34a">FEED_BUFFER</text>
</g>
<!-- Disfwk&#45;&gt;VSPD -->
<g id="edge57" class="edge">
<title>Disfwk&#45;&gt;VSPD</title>
<path fill="none" stroke="#be185d" d="M1732.68,-1070C2085.32,-1070 3583.67,-1070 3583.67,-1070 3583.67,-1070 3583.67,-764 3583.67,-764 3583.67,-764 3584.73,-764 3584.73,-764"/>
<polygon fill="#be185d" stroke="#be185d" points="3582.75,-767.5 3592.75,-764 3582.75,-760.5 3582.75,-767.5"/>
<text xml:space="preserve" text-anchor="middle" x="1570" y="-911.7" font-family="Helvetica,sans-Serif" font-size="9.00" fill="#be185d">layer compose</text>
<text xml:space="preserve" text-anchor="middle" x="1570" y="-901.95" font-family="Helvetica,sans-Serif" font-size="9.00" fill="#be185d">plane addr</text>
</g>
<!-- Disfwk&#45;&gt;DRV -->
<g id="edge29" class="edge">
<title>Disfwk&#45;&gt;DRV</title>
<path fill="none" stroke="#475569" d="M1732.58,-1061C1820.72,-1061 1956.65,-1061 1956.65,-1061 1956.65,-1061 1956.65,-943.26 1956.65,-943.26"/>
<polygon fill="#475569" stroke="#475569" points="1960.15,-943.26 1956.65,-933.26 1953.15,-943.26 1960.15,-943.26"/>
</g>
<!-- Disfwk&#45;&gt;RPMsgR -->
<g id="edge32" class="edge">
<title>Disfwk&#45;&gt;RPMsgR</title>
<path fill="none" stroke="#475569" d="M1664.92,-1091.08C1664.92,-1091.08 1664.92,-1185.13 1664.92,-1185.13"/>
<polygon fill="#475569" stroke="#475569" points="1661.42,-1185.13 1664.92,-1195.13 1668.42,-1185.13 1661.42,-1185.13"/>
</g>
<!-- RPMsgR&#45;&gt;Disfwk -->
<g id="edge56" class="edge">
<title>RPMsgR&#45;&gt;Disfwk</title>
<path fill="none" stroke="#be185d" d="M1625.33,-1196.64C1625.33,-1196.64 1625.33,-1102.54 1625.33,-1102.54"/>
<polygon fill="#be185d" stroke="#be185d" points="1628.83,-1102.54 1625.33,-1092.54 1621.83,-1102.54 1628.83,-1102.54"/>
</g>
<!-- DomDCam -->
<g id="node53" class="node">
<title>DomDCam</title>
<path fill="#334155" stroke="#334155" d="M910.12,-776.38C910.12,-776.38 819.88,-776.38 819.88,-776.38 813.88,-776.38 807.88,-770.38 807.88,-764.38 807.88,-764.38 807.88,-752.38 807.88,-752.38 807.88,-746.38 813.88,-740.38 819.88,-740.38 819.88,-740.38 910.12,-740.38 910.12,-740.38 916.12,-740.38 922.12,-746.38 922.12,-752.38 922.12,-752.38 922.12,-764.38 922.12,-764.38 922.12,-770.38 916.12,-776.38 910.12,-776.38"/>
<text xml:space="preserve" text-anchor="middle" x="865" y="-760.12" font-family="Helvetica,sans-Serif" font-size="10.00">V4L2 / camera service</text>
<text xml:space="preserve" text-anchor="middle" x="865" y="-748.88" font-family="Helvetica,sans-Serif" font-size="10.00">/dev/video*</text>
</g>
<!-- RPMsgR&#45;&gt;DomDCam -->
<g id="edge51" class="edge">
<title>RPMsgR&#45;&gt;DomDCam</title>
<path fill="none" stroke="#16a34a" d="M1565.32,-1215C1372.5,-1215 845.96,-1215 845.96,-1215 845.96,-1215 845.96,-788.35 845.96,-788.35"/>
<polygon fill="#16a34a" stroke="#16a34a" points="849.46,-788.35 845.96,-778.35 842.46,-788.35 849.46,-788.35"/>
<text xml:space="preserve" text-anchor="middle" x="136.75" y="-1015.58" font-family="Helvetica,sans-Serif" font-size="9.00" fill="#16a34a">RPMsg over MFIS</text>
</g>
<!-- Dom0K -->
<g id="node48" class="node">
<title>Dom0K</title>
<path fill="#334155" stroke="#334155" d="M462,-931.38C462,-931.38 374,-931.38 374,-931.38 368,-931.38 362,-925.38 362,-919.38 362,-919.38 362,-901.62 362,-901.62 362,-895.62 368,-889.62 374,-889.62 374,-889.62 462,-889.62 462,-889.62 468,-889.62 474,-895.62 474,-901.62 474,-901.62 474,-919.38 474,-919.38 474,-925.38 468,-931.38 462,-931.38"/>
<text xml:space="preserve" text-anchor="middle" x="418" y="-917.88" font-family="Helvetica,sans-Serif" font-size="10.00">Linux 6.1.102</text>
<text xml:space="preserve" text-anchor="middle" x="418" y="-906.62" font-family="Helvetica,sans-Serif" font-size="10.00">renesas&#45;rcar/linux&#45;bsp</text>
<text xml:space="preserve" text-anchor="middle" x="418" y="-895.38" font-family="Helvetica,sans-Serif" font-size="10.00">(generic&#45;armv8&#45;xt)</text>
</g>
<!-- Xen&#45;&gt;Dom0K -->
<g id="edge33" class="edge">
<title>Xen&#45;&gt;Dom0K</title>
<path fill="none" stroke="#475569" d="M516.06,-1051.76C516.06,-1010 516.06,-911 516.06,-911 516.06,-911 485.99,-911 485.99,-911"/>
<polygon fill="#475569" stroke="#475569" points="485.99,-907.5 475.99,-911 485.99,-914.5 485.99,-907.5"/>
</g>
<!-- Xen&#45;&gt;DomDK -->
<g id="edge34" class="edge">
<title>Xen&#45;&gt;DomDK</title>
<path fill="none" stroke="#475569" d="M683.21,-1070C844.72,-1070 1169,-1070 1169,-1070 1169,-1070 1169,-943.19 1169,-943.19"/>
<polygon fill="#475569" stroke="#475569" points="1172.5,-943.19 1169,-933.19 1165.5,-943.19 1172.5,-943.19"/>
</g>
<!-- DomUK -->
<g id="node57" class="node">
<title>DomUK</title>
<path fill="#334155" stroke="#334155" d="M648.88,-928.5C648.88,-928.5 539.12,-928.5 539.12,-928.5 533.12,-928.5 527.12,-922.5 527.12,-916.5 527.12,-916.5 527.12,-904.5 527.12,-904.5 527.12,-898.5 533.12,-892.5 539.12,-892.5 539.12,-892.5 648.88,-892.5 648.88,-892.5 654.88,-892.5 660.88,-898.5 660.88,-904.5 660.88,-904.5 660.88,-916.5 660.88,-916.5 660.88,-922.5 654.88,-928.5 648.88,-928.5"/>
<text xml:space="preserve" text-anchor="middle" x="594" y="-912.25" font-family="Helvetica,sans-Serif" font-size="10.00">Linux 6.1.102 (xt)</text>
<text xml:space="preserve" text-anchor="middle" x="594" y="-901" font-family="Helvetica,sans-Serif" font-size="10.00">Wayland / weston graphics</text>
</g>
<!-- Xen&#45;&gt;DomUK -->
<g id="edge35" class="edge">
<title>Xen&#45;&gt;DomUK</title>
<path fill="none" stroke="#475569" d="M594,-1051.7C594,-1051.7 594,-940.1 594,-940.1"/>
<polygon fill="#475569" stroke="#475569" points="597.5,-940.1 594,-930.1 590.5,-940.1 597.5,-940.1"/>
</g>
<!-- Xen&#45;&gt;AKernel -->
<g id="edge36" class="edge">
<title>Xen&#45;&gt;AKernel</title>
<path fill="none" stroke="#475569" d="M671.94,-1051.54C671.94,-962.77 671.94,-584 671.94,-584 671.94,-584 757.8,-584 757.8,-584"/>
<polygon fill="#475569" stroke="#475569" points="757.8,-587.5 767.8,-584 757.8,-580.5 757.8,-587.5"/>
</g>
<!-- Dom0Tools -->
<g id="node49" class="node">
<title>Dom0Tools</title>
<path fill="#334155" stroke="#334155" d="M463.38,-776.38C463.38,-776.38 368.62,-776.38 368.62,-776.38 362.62,-776.38 356.62,-770.38 356.62,-764.38 356.62,-764.38 356.62,-752.38 356.62,-752.38 356.62,-746.38 362.62,-740.38 368.62,-740.38 368.62,-740.38 463.38,-740.38 463.38,-740.38 469.38,-740.38 475.38,-746.38 475.38,-752.38 475.38,-752.38 475.38,-764.38 475.38,-764.38 475.38,-770.38 469.38,-776.38 463.38,-776.38"/>
<text xml:space="preserve" text-anchor="middle" x="416" y="-754.5" font-family="Helvetica,sans-Serif" font-size="10.00">xl / xenstore / toolstack</text>
</g>
<!-- Dom0K&#45;&gt;Dom0Tools -->
<g id="edge37" class="edge">
<title>Dom0K&#45;&gt;Dom0Tools</title>
<path fill="none" stroke="#475569" d="M418,-889.35C418,-889.35 418,-788.01 418,-788.01"/>
<polygon fill="#475569" stroke="#475569" points="421.5,-788.01 418,-778.01 414.5,-788.01 421.5,-788.01"/>
</g>
<!-- DomDBSP -->
<g id="node51" class="node">
<title>DomDBSP</title>
<path fill="#334155" stroke="#334155" d="M1479.38,-776.38C1479.38,-776.38 1426.62,-776.38 1426.62,-776.38 1420.62,-776.38 1414.62,-770.38 1414.62,-764.38 1414.62,-764.38 1414.62,-752.38 1414.62,-752.38 1414.62,-746.38 1420.62,-740.38 1426.62,-740.38 1426.62,-740.38 1479.38,-740.38 1479.38,-740.38 1485.38,-740.38 1491.38,-746.38 1491.38,-752.38 1491.38,-752.38 1491.38,-764.38 1491.38,-764.38 1491.38,-770.38 1485.38,-776.38 1479.38,-776.38"/>
<text xml:space="preserve" text-anchor="middle" x="1453" y="-760.12" font-family="Helvetica,sans-Serif" font-size="10.00">ATF + U&#45;Boot</text>
<text xml:space="preserve" text-anchor="middle" x="1453" y="-748.88" font-family="Helvetica,sans-Serif" font-size="10.00">(recipes&#45;bsp)</text>
</g>
<!-- DomDK&#45;&gt;DomDBSP -->
<g id="edge38" class="edge">
<title>DomDK&#45;&gt;DomDBSP</title>
<path fill="none" stroke="#475569" d="M1301.85,-900C1375.77,-900 1453,-900 1453,-900 1453,-900 1453,-788.11 1453,-788.11"/>
<polygon fill="#475569" stroke="#475569" points="1456.5,-788.11 1453,-778.11 1449.5,-788.11 1456.5,-788.11"/>
</g>
<!-- DomDGfx -->
<g id="node52" class="node">
<title>DomDGfx</title>
<path fill="#334155" stroke="#334155" d="M1025.12,-779.25C1025.12,-779.25 958.88,-779.25 958.88,-779.25 952.88,-779.25 946.88,-773.25 946.88,-767.25 946.88,-767.25 946.88,-749.5 946.88,-749.5 946.88,-743.5 952.88,-737.5 958.88,-737.5 958.88,-737.5 1025.12,-737.5 1025.12,-737.5 1031.12,-737.5 1037.12,-743.5 1037.12,-749.5 1037.12,-749.5 1037.12,-767.25 1037.12,-767.25 1037.12,-773.25 1031.12,-779.25 1025.12,-779.25"/>
<text xml:space="preserve" text-anchor="middle" x="992" y="-765.75" font-family="Helvetica,sans-Serif" font-size="10.00">virglrenderer</text>
<text xml:space="preserve" text-anchor="middle" x="992" y="-754.5" font-family="Helvetica,sans-Serif" font-size="10.00">gles&#45;user&#45;module</text>
<text xml:space="preserve" text-anchor="middle" x="992" y="-743.25" font-family="Helvetica,sans-Serif" font-size="10.00">libsdl2</text>
</g>
<!-- DomDK&#45;&gt;DomDGfx -->
<g id="edge39" class="edge">
<title>DomDK&#45;&gt;DomDGfx</title>
<path fill="none" stroke="#475569" d="M1049.62,-889.3C1049.62,-847.39 1049.62,-758 1049.62,-758 1049.62,-758 1048.4,-758 1048.4,-758"/>
<polygon fill="#475569" stroke="#475569" points="1048.92,-754.5 1038.92,-758 1048.92,-761.5 1048.92,-754.5"/>
</g>
<!-- DomDK&#45;&gt;DomDCam -->
<g id="edge40" class="edge">
<title>DomDK&#45;&gt;DomDCam</title>
<path fill="none" stroke="#475569" d="M1036.12,-911C961.83,-911 884.04,-911 884.04,-911 884.04,-911 884.04,-788.3 884.04,-788.3"/>
<polygon fill="#475569" stroke="#475569" points="887.54,-788.3 884.04,-778.3 880.54,-788.3 887.54,-788.3"/>
</g>
<!-- DomDDis -->
<g id="node54" class="node">
<title>DomDDis</title>
<path fill="#334155" stroke="#334155" d="M1135.88,-776.38C1135.88,-776.38 1074.12,-776.38 1074.12,-776.38 1068.12,-776.38 1062.12,-770.38 1062.12,-764.38 1062.12,-764.38 1062.12,-752.38 1062.12,-752.38 1062.12,-746.38 1068.12,-740.38 1074.12,-740.38 1074.12,-740.38 1135.88,-740.38 1135.88,-740.38 1141.88,-740.38 1147.88,-746.38 1147.88,-752.38 1147.88,-752.38 1147.88,-764.38 1147.88,-764.38 1147.88,-770.38 1141.88,-776.38 1135.88,-776.38"/>
<text xml:space="preserve" text-anchor="middle" x="1105" y="-760.12" font-family="Helvetica,sans-Serif" font-size="10.00">display svc</text>
<text xml:space="preserve" text-anchor="middle" x="1105" y="-748.88" font-family="Helvetica,sans-Serif" font-size="10.00">(disfwk + DRM)</text>
</g>
<!-- DomDK&#45;&gt;DomDDis -->
<g id="edge41" class="edge">
<title>DomDK&#45;&gt;DomDDis</title>
<path fill="none" stroke="#475569" d="M1105,-889.35C1105,-889.35 1105,-788.01 1105,-788.01"/>
<polygon fill="#475569" stroke="#475569" points="1108.5,-788.01 1105,-778.01 1101.5,-788.01 1108.5,-788.01"/>
</g>
<!-- DomDNet -->
<g id="node55" class="node">
<title>DomDNet</title>
<path fill="#334155" stroke="#334155" d="M1279,-776.38C1279,-776.38 1185,-776.38 1185,-776.38 1179,-776.38 1173,-770.38 1173,-764.38 1173,-764.38 1173,-752.38 1173,-752.38 1173,-746.38 1179,-740.38 1185,-740.38 1185,-740.38 1279,-740.38 1279,-740.38 1285,-740.38 1291,-746.38 1291,-752.38 1291,-752.38 1291,-764.38 1291,-764.38 1291,-770.38 1285,-776.38 1279,-776.38"/>
<text xml:space="preserve" text-anchor="middle" x="1232" y="-754.5" font-family="Helvetica,sans-Serif" font-size="10.00">virtio&#45;net / pv backends</text>
</g>
<!-- DomDK&#45;&gt;DomDNet -->
<g id="edge42" class="edge">
<title>DomDK&#45;&gt;DomDNet</title>
<path fill="none" stroke="#475569" d="M1232,-889.35C1232,-889.35 1232,-788.01 1232,-788.01"/>
<polygon fill="#475569" stroke="#475569" points="1235.5,-788.01 1232,-778.01 1228.5,-788.01 1235.5,-788.01"/>
</g>
<!-- DomDcm -->
<g id="node56" class="node">
<title>DomDcm</title>
<path fill="#334155" stroke="#334155" d="M1377.5,-776.38C1377.5,-776.38 1328.5,-776.38 1328.5,-776.38 1322.5,-776.38 1316.5,-770.38 1316.5,-764.38 1316.5,-764.38 1316.5,-752.38 1316.5,-752.38 1316.5,-746.38 1322.5,-740.38 1328.5,-740.38 1328.5,-740.38 1377.5,-740.38 1377.5,-740.38 1383.5,-740.38 1389.5,-746.38 1389.5,-752.38 1389.5,-752.38 1389.5,-764.38 1389.5,-764.38 1389.5,-770.38 1383.5,-776.38 1377.5,-776.38"/>
<text xml:space="preserve" text-anchor="middle" x="1353" y="-760.12" font-family="Helvetica,sans-Serif" font-size="10.00">cmemdrv</text>
<text xml:space="preserve" text-anchor="middle" x="1353" y="-748.88" font-family="Helvetica,sans-Serif" font-size="10.00">(contig mem)</text>
</g>
<!-- DomDK&#45;&gt;DomDcm -->
<g id="edge43" class="edge">
<title>DomDK&#45;&gt;DomDcm</title>
<path fill="none" stroke="#475569" d="M1296.25,-889.3C1296.25,-847.39 1296.25,-758 1296.25,-758 1296.25,-758 1304.58,-758 1304.58,-758"/>
<polygon fill="#475569" stroke="#475569" points="1304.58,-761.5 1314.58,-758 1304.58,-754.5 1304.58,-761.5"/>
</g>
<!-- DomDCam&#45;&gt;AKernel -->
<g id="edge52" class="edge">
<title>DomDCam&#45;&gt;AKernel</title>
<path fill="none" stroke="#16a34a" stroke-dasharray="5,2" d="M865,-739.99C865,-739.99 865,-621.96 865,-621.96"/>
<polygon fill="#16a34a" stroke="#16a34a" points="868.5,-621.96 865,-611.96 861.5,-621.96 868.5,-621.96"/>
<text xml:space="preserve" text-anchor="middle" x="906.62" y="-703.95" font-family="Helvetica,sans-Serif" font-size="9.00" fill="#16a34a">virtio / shared bufs</text>
<text xml:space="preserve" text-anchor="middle" x="906.62" y="-694.2" font-family="Helvetica,sans-Serif" font-size="9.00" fill="#16a34a">(via IPMMU regions)</text>
</g>
<!-- DomUApp -->
<g id="node58" class="node">
<title>DomUApp</title>
<path fill="#334155" stroke="#334155" d="M771.88,-928.5C771.88,-928.5 698.12,-928.5 698.12,-928.5 692.12,-928.5 686.12,-922.5 686.12,-916.5 686.12,-916.5 686.12,-904.5 686.12,-904.5 686.12,-898.5 692.12,-892.5 698.12,-892.5 698.12,-892.5 771.88,-892.5 771.88,-892.5 777.88,-892.5 783.88,-898.5 783.88,-904.5 783.88,-904.5 783.88,-916.5 783.88,-916.5 783.88,-922.5 777.88,-928.5 771.88,-928.5"/>
<text xml:space="preserve" text-anchor="middle" x="735" y="-912.25" font-family="Helvetica,sans-Serif" font-size="10.00">ADAS apps</text>
<text xml:space="preserve" text-anchor="middle" x="735" y="-901" font-family="Helvetica,sans-Serif" font-size="10.00">(samples / ref&#45;app)</text>
</g>
<!-- AMods -->
<g id="node60" class="node">
<title>AMods</title>
<path fill="#fbcfe8" stroke="#334155" d="M936.75,-484.75C936.75,-484.75 781.25,-484.75 781.25,-484.75 775.25,-484.75 769.25,-478.75 769.25,-472.75 769.25,-472.75 769.25,-432.5 769.25,-432.5 769.25,-426.5 775.25,-420.5 781.25,-420.5 781.25,-420.5 936.75,-420.5 936.75,-420.5 942.75,-420.5 948.75,-426.5 948.75,-432.5 948.75,-432.5 948.75,-472.75 948.75,-472.75 948.75,-478.75 942.75,-484.75 936.75,-484.75"/>
<text xml:space="preserve" text-anchor="middle" x="859" y="-471.25" font-family="Helvetica,sans-Serif" font-size="10.00">Android kernel modules</text>
<text xml:space="preserve" text-anchor="middle" x="859" y="-460" font-family="Helvetica,sans-Serif" font-size="10.00">• disfwk_fe.ko (DRM_RCAR_RVGC)</text>
<text xml:space="preserve" text-anchor="middle" x="859" y="-448.75" font-family="Helvetica,sans-Serif" font-size="10.00">• ddk&#45;km / pvrsrvkm.ko (PowerVR)</text>
<text xml:space="preserve" text-anchor="middle" x="859" y="-437.5" font-family="Helvetica,sans-Serif" font-size="10.00">• xen&#45;virtual&#45;device modules</text>
<text xml:space="preserve" text-anchor="middle" x="859" y="-426.25" font-family="Helvetica,sans-Serif" font-size="10.00">• mesa3d_upstream</text>
</g>
<!-- AKernel&#45;&gt;AMods -->
<g id="edge44" class="edge">
<title>AKernel&#45;&gt;AMods</title>
<path fill="none" stroke="#475569" d="M859.19,-556.7C859.19,-556.7 859.19,-496.46 859.19,-496.46"/>
<polygon fill="#475569" stroke="#475569" points="862.69,-496.46 859.19,-486.46 855.69,-496.46 862.69,-496.46"/>
</g>
<!-- ASepol -->
<g id="node64" class="node">
<title>ASepol</title>
<path fill="#fbcfe8" stroke="#334155" d="M1094.5,-470.62C1094.5,-470.62 985.5,-470.62 985.5,-470.62 979.5,-470.62 973.5,-464.62 973.5,-458.62 973.5,-458.62 973.5,-446.62 973.5,-446.62 973.5,-440.62 979.5,-434.62 985.5,-434.62 985.5,-434.62 1094.5,-434.62 1094.5,-434.62 1100.5,-434.62 1106.5,-440.62 1106.5,-446.62 1106.5,-446.62 1106.5,-458.62 1106.5,-458.62 1106.5,-464.62 1100.5,-470.62 1094.5,-470.62"/>
<text xml:space="preserve" text-anchor="middle" x="1040" y="-454.38" font-family="Helvetica,sans-Serif" font-size="10.00">sepolicy / vintf</text>
<text xml:space="preserve" text-anchor="middle" x="1040" y="-443.12" font-family="Helvetica,sans-Serif" font-size="10.00">(android_device/sepolicy/*)</text>
</g>
<!-- AKernel&#45;&gt;ASepol -->
<g id="edge48" class="edge">
<title>AKernel&#45;&gt;ASepol</title>
<path fill="none" stroke="#475569" stroke-dasharray="5,2" d="M954.56,-556.78C954.56,-518.6 954.56,-453 954.56,-453 954.56,-453 961.59,-453 961.59,-453"/>
<polygon fill="#475569" stroke="#475569" points="961.59,-456.5 971.59,-453 961.59,-449.5 961.59,-456.5"/>
</g>
<!-- AMods&#45;&gt;RPMsgR -->
<g id="edge55" class="edge">
<title>AMods&#45;&gt;RPMsgR</title>
<path fill="none" stroke="#be185d" d="M948.97,-479C1140.72,-479 1572.25,-479 1572.25,-479 1572.25,-479 1572.25,-1185.29 1572.25,-1185.29"/>
<polygon fill="#be185d" stroke="#be185d" points="1568.75,-1185.29 1572.25,-1195.29 1575.75,-1185.29 1568.75,-1185.29"/>
<text xml:space="preserve" text-anchor="middle" x="40.88" y="-856.08" font-family="Helvetica,sans-Serif" font-size="9.00" fill="#be185d">Taurus RVGC proto</text>
<text xml:space="preserve" text-anchor="middle" x="40.88" y="-846.33" font-family="Helvetica,sans-Serif" font-size="9.00" fill="#be185d">(disfwk_fe ⇄ disfwk)</text>
<text xml:space="preserve" text-anchor="middle" x="40.88" y="-835.08" font-family="Helvetica,sans-Serif" font-size="9.00" fill="#be185d">VBLANK events</text>
</g>
<!-- AHals -->
<g id="node61" class="node">
<title>AHals</title>
<path fill="#fbcfe8" stroke="#334155" d="M961.38,-341.25C961.38,-341.25 818.62,-341.25 818.62,-341.25 812.62,-341.25 806.62,-335.25 806.62,-329.25 806.62,-329.25 806.62,-255.25 806.62,-255.25 806.62,-249.25 812.62,-243.25 818.62,-243.25 818.62,-243.25 961.38,-243.25 961.38,-243.25 967.38,-243.25 973.38,-249.25 973.38,-255.25 973.38,-255.25 973.38,-329.25 973.38,-329.25 973.38,-335.25 967.38,-341.25 961.38,-341.25"/>
<text xml:space="preserve" text-anchor="middle" x="890" y="-327.75" font-family="Helvetica,sans-Serif" font-size="10.00">Android HALs (vendor)</text>
<text xml:space="preserve" text-anchor="middle" x="890" y="-316.5" font-family="Helvetica,sans-Serif" font-size="10.00">• HWC3 DRM (hwc3&#45;drm&#45;xt)</text>
<text xml:space="preserve" text-anchor="middle" x="890" y="-305.25" font-family="Helvetica,sans-Serif" font-size="10.00">• audio HAL</text>
<text xml:space="preserve" text-anchor="middle" x="890" y="-294" font-family="Helvetica,sans-Serif" font-size="10.00">• gralloc.xenvm_trout_arm64</text>
<text xml:space="preserve" text-anchor="middle" x="890" y="-282.75" font-family="Helvetica,sans-Serif" font-size="10.00">• mapper.powervr / vulkan.powervr</text>
<text xml:space="preserve" text-anchor="middle" x="890" y="-271.5" font-family="Helvetica,sans-Serif" font-size="10.00">• libEGL/GLES*_powervr</text>
<text xml:space="preserve" text-anchor="middle" x="890" y="-260.25" font-family="Helvetica,sans-Serif" font-size="10.00">• automotive vehicle HAL</text>
<text xml:space="preserve" text-anchor="middle" x="890" y="-249" font-family="Helvetica,sans-Serif" font-size="10.00"> &#160;(virtualization svc)</text>
</g>
<!-- AMods&#45;&gt;AHals -->
<g id="edge45" class="edge">
<title>AMods&#45;&gt;AHals</title>
<path fill="none" stroke="#475569" d="M854,-420.17C854,-420.17 854,-353.24 854,-353.24"/>
<polygon fill="#475569" stroke="#475569" points="857.5,-353.24 854,-343.24 850.5,-353.24 857.5,-353.24"/>
</g>
<!-- AHals&#45;&gt;GPU -->
<g id="edge58" class="edge">
<title>AHals&#45;&gt;GPU</title>
<path fill="none" stroke="#dc2626" stroke-dasharray="5,2" d="M966.88,-341.6C966.88,-408.85 966.88,-521 966.88,-521 966.88,-521 3483.88,-521 3483.88,-521 3483.88,-521 3483.88,-877.77 3483.88,-877.77"/>
<polygon fill="#dc2626" stroke="#dc2626" points="3480.38,-877.77 3483.88,-887.77 3487.38,-877.77 3480.38,-877.77"/>
<text xml:space="preserve" text-anchor="middle" x="3868.88" y="-584.7" font-family="Helvetica,sans-Serif" font-size="9.00" fill="#dc2626">PowerVR ioctl</text>
<text xml:space="preserve" text-anchor="middle" x="3868.88" y="-574.95" font-family="Helvetica,sans-Serif" font-size="9.00" fill="#dc2626">(pvrsrvkm)</text>
</g>
<!-- AHals&#45;&gt;AMods -->
<g id="edge54" class="edge">
<title>AHals&#45;&gt;AMods</title>
<path fill="none" stroke="#be185d" d="M901.38,-341.68C901.38,-341.68 901.38,-408.8 901.38,-408.8"/>
<polygon fill="#be185d" stroke="#be185d" points="897.88,-408.8 901.38,-418.8 904.88,-408.8 897.88,-408.8"/>
<text xml:space="preserve" text-anchor="middle" x="963.88" y="-386.95" font-family="Helvetica,sans-Serif" font-size="9.00" fill="#be185d">DRM atomic commit</text>
<text xml:space="preserve" text-anchor="middle" x="963.88" y="-377.2" font-family="Helvetica,sans-Serif" font-size="9.00" fill="#be185d">IOC_LAYER_SET_ADDR/POS/SIZE</text>
<text xml:space="preserve" text-anchor="middle" x="963.88" y="-367.45" font-family="Helvetica,sans-Serif" font-size="9.00" fill="#be185d">DISPLAY_FLUSH/INIT</text>
</g>
<!-- AFwk -->
<g id="node62" class="node">
<title>AFwk</title>
<path fill="#fbcfe8" stroke="#334155" d="M958.38,-192.25C958.38,-192.25 821.62,-192.25 821.62,-192.25 815.62,-192.25 809.62,-186.25 809.62,-180.25 809.62,-180.25 809.62,-151.25 809.62,-151.25 809.62,-145.25 815.62,-139.25 821.62,-139.25 821.62,-139.25 958.38,-139.25 958.38,-139.25 964.38,-139.25 970.38,-145.25 970.38,-151.25 970.38,-151.25 970.38,-180.25 970.38,-180.25 970.38,-186.25 964.38,-192.25 958.38,-192.25"/>
<text xml:space="preserve" text-anchor="middle" x="890" y="-178.75" font-family="Helvetica,sans-Serif" font-size="10.00">Android framework</text>
<text xml:space="preserve" text-anchor="middle" x="890" y="-167.5" font-family="Helvetica,sans-Serif" font-size="10.00">SurfaceFlinger / WindowManager</text>
<text xml:space="preserve" text-anchor="middle" x="890" y="-156.25" font-family="Helvetica,sans-Serif" font-size="10.00">CarService + overlays</text>
<text xml:space="preserve" text-anchor="middle" x="890" y="-145" font-family="Helvetica,sans-Serif" font-size="10.00">CarServiceOverlayXenVm</text>
</g>
<!-- AHals&#45;&gt;AFwk -->
<g id="edge46" class="edge">
<title>AHals&#45;&gt;AFwk</title>
<path fill="none" stroke="#475569" d="M916.79,-242.98C916.79,-242.98 916.79,-203.97 916.79,-203.97"/>
<polygon fill="#475569" stroke="#475569" points="920.29,-203.97 916.79,-193.97 913.29,-203.97 920.29,-203.97"/>
</g>
<!-- AFwk&#45;&gt;AHals -->
<g id="edge53" class="edge">
<title>AFwk&#45;&gt;AHals</title>
<path fill="none" stroke="#be185d" d="M863.21,-192.58C863.21,-192.58 863.21,-231.48 863.21,-231.48"/>
<polygon fill="#be185d" stroke="#be185d" points="859.71,-231.48 863.21,-241.48 866.71,-231.48 859.71,-231.48"/>
</g>
<!-- AUI -->
<g id="node63" class="node">
<title>AUI</title>
<path fill="#fbcfe8" stroke="#334155" d="M973,-88.25C973,-88.25 807,-88.25 807,-88.25 801,-88.25 795,-82.25 795,-76.25 795,-76.25 795,-36 795,-36 795,-30 801,-24 807,-24 807,-24 973,-24 973,-24 979,-24 985,-30 985,-36 985,-36 985,-76.25 985,-76.25 985,-82.25 979,-88.25 973,-88.25"/>
<text xml:space="preserve" text-anchor="middle" x="890" y="-74.75" font-family="Helvetica,sans-Serif" font-size="10.00">Multi&#45;display UI</text>
<text xml:space="preserve" text-anchor="middle" x="890" y="-63.5" font-family="Helvetica,sans-Serif" font-size="10.00">• Display 0 (main)</text>
<text xml:space="preserve" text-anchor="middle" x="890" y="-52.25" font-family="Helvetica,sans-Serif" font-size="10.00">• Display 1 (passenger_display)</text>
<text xml:space="preserve" text-anchor="middle" x="890" y="-41" font-family="Helvetica,sans-Serif" font-size="10.00">layout: display_layout_configuration.xml</text>
<text xml:space="preserve" text-anchor="middle" x="890" y="-29.75" font-family="Helvetica,sans-Serif" font-size="10.00">settings: display_settings.xml</text>
</g>
<!-- AFwk&#45;&gt;AUI -->
<g id="edge47" class="edge">
<title>AFwk&#45;&gt;AUI</title>
<path fill="none" stroke="#475569" d="M890,-138.93C890,-138.93 890,-100.04 890,-100.04"/>
<polygon fill="#475569" stroke="#475569" points="893.5,-100.04 890,-90.04 886.5,-100.04 893.5,-100.04"/>
</g>
<!-- RepoMap -->
<g id="node65" class="node">
<title>RepoMap</title>
<polygon fill="#fef9c3" stroke="#a16207" points="3275.12,-1971.62 2788.88,-1971.62 2788.88,-1810.62 3281.12,-1810.62 3281.12,-1965.62 3275.12,-1971.62"/>
<polyline fill="none" stroke="#a16207" points="3275.12,-1971.62 3275.12,-1965.62"/>
<polyline fill="none" stroke="#a16207" points="3281.12,-1965.62 3275.12,-1965.62"/>
<text xml:space="preserve" text-anchor="middle" x="3035" y="-1958.12" font-family="Helvetica,sans-Serif" font-size="10.00">REPO → ROLE</text>
<text xml:space="preserve" text-anchor="middle" x="3035" y="-1945.38" font-family="Helvetica,sans-Serif" font-size="10.00">• android_device &#160;&#160;&#160;&#160;&#160;&#160;&#160;&#160;&#160;&#160;&#160;&#160;&#160;→ device/epam/aosp&#45;xenvm&#45;trout (HWC3, audio HAL, sepolicy, multi&#45;display XML)</text>
<text xml:space="preserve" text-anchor="middle" x="3035" y="-1932.62" font-family="Helvetica,sans-Serif" font-size="10.00">• android&#45;manifest &#160;&#160;&#160;&#160;&#160;&#160;&#160;&#160;&#160;&#160;&#160;→ AOSP repo manifest (Trout XenVM, mesa3d, lisot)</text>
<text xml:space="preserve" text-anchor="middle" x="3035" y="-1919.88" font-family="Helvetica,sans-Serif" font-size="10.00">• android&#45;kernel&#45;manifest &#160;&#160;&#160;&#160;→ kernel manifest (xen&#45;troops/linux + ddk&#45;km + disfwk_fe modules)</text>
<text xml:space="preserve" text-anchor="middle" x="3035" y="-1907.12" font-family="Helvetica,sans-Serif" font-size="10.00">• ddk&#45;km &#160;&#160;&#160;&#160;&#160;&#160;&#160;&#160;&#160;&#160;&#160;&#160;&#160;&#160;&#160;&#160;&#160;&#160;&#160;&#160;&#160;→ Imagination PowerVR Rogue KM driver (pvrsrvkm)</text>
<text xml:space="preserve" text-anchor="middle" x="3035" y="-1894.38" font-family="Helvetica,sans-Serif" font-size="10.00">• ddk&#45;um&#45;bin &#160;&#160;&#160;&#160;&#160;&#160;&#160;&#160;&#160;&#160;&#160;&#160;&#160;&#160;&#160;&#160;&#160;→ PowerVR Android userspace (libEGL/GLES/Vulkan, gralloc, mapper)</text>
<text xml:space="preserve" text-anchor="middle" x="3035" y="-1881.62" font-family="Helvetica,sans-Serif" font-size="10.00">• disfwk_fe &#160;&#160;&#160;&#160;&#160;&#160;&#160;&#160;&#160;&#160;&#160;&#160;&#160;&#160;&#160;&#160;&#160;&#160;→ Linux DRM frontend (DRM_RCAR_RVGC) — RPMsg ↔ CR52 disfwk</text>
<text xml:space="preserve" text-anchor="middle" x="3035" y="-1868.88" font-family="Helvetica,sans-Serif" font-size="10.00">• gen5&#45;prebuilts &#160;&#160;&#160;&#160;&#160;&#160;&#160;&#160;&#160;&#160;&#160;&#160;&#160;→ IPLs / BL31 / OP&#45;TEE / U&#45;Boot / NPU FW / multifwk FW / GPU prebuilts</text>
<text xml:space="preserve" text-anchor="middle" x="3035" y="-1856.12" font-family="Helvetica,sans-Serif" font-size="10.00">• meta&#45;xt&#45;gen5&#45;platform &#160;&#160;&#160;&#160;&#160;&#160;→ meta&#45;xt&#45;{dom0,domd,domu,domx}&#45;gen5 Yocto layers</text>
<text xml:space="preserve" text-anchor="middle" x="3035" y="-1843.38" font-family="Helvetica,sans-Serif" font-size="10.00">• meta&#45;xt&#45;x5h&#45;dev &#160;&#160;&#160;&#160;&#160;&#160;&#160;&#160;&#160;&#160;&#160;&#160;→ top&#45;level moulin/yaml integration (Xen+kernels+Android+CR52)</text>
<text xml:space="preserve" text-anchor="middle" x="3035" y="-1830.62" font-family="Helvetica,sans-Serif" font-size="10.00">• x5h&#45;cr52&#45;platform &#160;&#160;&#160;&#160;&#160;&#160;&#160;&#160;&#160;&#160;→ rcar&#45;xos SDK 4.31 (OSAL, drivers, MW, samples — camfwk/disfwk)</text>
<text xml:space="preserve" text-anchor="middle" x="3035" y="-1817.88" font-family="Helvetica,sans-Serif" font-size="10.00">• x5h&#45;cr52&#45;dev &#160;&#160;&#160;&#160;&#160;&#160;&#160;&#160;&#160;&#160;&#160;&#160;&#160;&#160;&#160;→ CR52 build orchestration (setup_and_build.sh)</text>
</g>
</g>
</svg>
